<?xml version="1.0" encoding="UTF-8" standalone="no"?>
<svg
   version="1.1"
   width="1500mm"
   height="1150mm"
   id="svg303"
   viewBox="0 0 5669.2914 4346.4567"
   sodipodi:docname="ESTANDARTE FEP DIEGO.svg"
   inkscape:export-filename="C:\Users\diego.justet\FEP.png"
   inkscape:export-xdpi="96"
   inkscape:export-ydpi="96"
   inkscape:version="1.1 (c68e22c387, 2021-05-23)"
   xmlns:inkscape="http://www.inkscape.org/namespaces/inkscape"
   xmlns:sodipodi="http://sodipodi.sourceforge.net/DTD/sodipodi-0.dtd"
   xmlns:xlink="http://www.w3.org/1999/xlink"
   xmlns="http://www.w3.org/2000/svg"
   xmlns:svg="http://www.w3.org/2000/svg">
  <sodipodi:namedview
     id="namedview305"
     pagecolor="#ffffff"
     bordercolor="#666666"
     borderopacity="1.0"
     inkscape:pageshadow="2"
     inkscape:pageopacity="0.0"
     inkscape:pagecheckerboard="0"
     showgrid="false"
     units="mm"
     inkscape:zoom="0.088638134"
     inkscape:cx="2414.3107"
     inkscape:cy="2769.6883"
     inkscape:window-width="1920"
     inkscape:window-height="1001"
     inkscape:window-x="-9"
     inkscape:window-y="-9"
     inkscape:window-maximized="1"
     inkscape:current-layer="svg303"
     inkscape:document-units="mm" />
  <defs
     id="defs94">
    <linearGradient
       id="grad1">
      <stop
         offset="0%"
         stop-color="#000000"
         stop-opacity="1.0000"
         id="stop88" />
      <stop
         offset="100%"
         stop-color="#ffffff"
         stop-opacity="1.0000"
         id="stop90" />
    </linearGradient>
    <linearGradient
       xlink:href="#grad1"
       id="grad2"
       x1="-1508.4307"
       y1="2975.5083"
       x2="-1508.4307"
       y2="7885.2588"
       gradientTransform="matrix(1.1547005,0,0,0.88449652,1748.683,-2615.9354)"
       gradientUnits="userSpaceOnUse" />
  </defs>
  <path
     d="M 5676.1886,4358.5482 H 6.8973622 V 15.891312 H 5676.1886 Z"
     style="fill:url(#grad2);stroke-width:1.01061"
     id="path96" />
  <path
     d="M 6.8973622,15.891312 H 5676.1886 V 4358.5482 H 6.8973622 Z m 0.108,4342.546588 H 5676.0806 V 16.001615 H 7.0053622 Z"
     style="fill:#102a83;fill-rule:evenodd;stroke-width:1.01061"
     id="path98" />
  <path
     d="m 4750.4291,3953.5568 a 264.5295,270.17143 0 0 0 370.461,-53.1718 264.5295,270.17143 0 1 0 -370.461,53.1718 z"
     style="fill:#3a3a3a;fill-rule:evenodd;stroke:#3a3a3a;stroke-width:0.505304;stroke-linecap:butt;stroke-linejoin:miter;stroke-dasharray:none"
     id="path100" />
  <path
     d="m 4760.5492,3928.4195 a 264.5295,270.17143 0 0 0 370.4611,-53.1717 264.5295,270.17143 0 1 0 -370.4611,53.1717 z"
     style="fill:#ffffff;fill-rule:evenodd;stroke:#ffffff;stroke-width:0.505304;stroke-linecap:butt;stroke-linejoin:miter;stroke-dasharray:none"
     id="path102" />
  <path
     d="m 4918.0544,3441.9007 a 264.5295,270.17143 0 0 1 264.5295,270.1714 264.5295,270.17143 0 1 1 -264.5295,-270.1714 z"
     style="fill:#3a3a3a;fill-rule:evenodd;stroke:#3a3a3a;stroke-width:0.505304;stroke-linecap:butt;stroke-linejoin:miter;stroke-dasharray:none"
     id="path104" />
  <path
     d="m 4915.452,3465.3862 a 264.5295,270.17143 0 0 1 264.5295,270.1715 264.5295,270.17143 0 1 1 -264.5295,-270.1715 z"
     style="fill:#ffffff;fill-rule:evenodd;stroke:#ffffff;stroke-width:0.505304;stroke-linecap:butt;stroke-linejoin:miter;stroke-dasharray:none"
     id="path106" />
  <g
     id="Layer1000"
     transform="matrix(1,0,0,1.0213286,1748.683,-2615.9353)">
    <path
       d="m 2967.776,6194.6207 -159.3384,-33.3655 152.0737,101.8836 z"
       style="fill:#59c9a2;fill-opacity:0;fill-rule:evenodd"
       id="path108" />
  </g>
  <g
     id="Layer1001"
     transform="matrix(1,0,0,1.0213286,1748.683,-2615.9353)">
    <path
       d="m 2695.7885,6131.4917 499.6023,104.6168 -476.8238,-319.454 z"
       style="fill:#f3202a;fill-rule:evenodd"
       id="path111" />
  </g>
  <path
     d="m 5038.274,3751.2531 138.2979,-29.5808 -91.1852,-108.1242 z"
     style="fill:#f3202a;fill-opacity:0;fill-rule:evenodd;stroke-width:1.01061"
     id="path114" />
  <path
     d="m 5287.2426,3701.7261 -492.5243,101.386 357.0502,138.1567 z"
     style="fill:#13b17a;fill-rule:evenodd;stroke-width:1.01061"
     id="path116" />
  <path
     d="m 4697.1759,3618.6607 h 85.3546 v 28.5205 h -57.1732 v 51.284 h 57.1732 v 28.5204 h -57.1732 v 79.805 h -28.1814 z m 115.0724,159.3481 h 24.0818 v 28.5204 h -24.0818 z m 54.3121,-159.3481 h 85.3547 v 28.5205 h -57.1733 v 51.284 h 57.1733 v 28.5204 h -57.1733 v 51.2845 h 57.1733 v 28.5205 h -85.3547 z m 115.0725,159.3481 h 24.0818 v 28.5204 h -24.0818 z m 82.237,-11.5131 v 40.2949 h -27.9249 v -189.4382 h 30.1027 c 20.111,0 37.3182,7.2826 51.5372,21.8482 14.2184,14.5652 21.3489,32.14 21.3489,52.6358 0,20.6275 -7.1305,38.2458 -21.3489,52.811 -14.2616,14.5657 -31.4262,21.8483 -51.5798,21.8483 z m 0,-28.2591 h 2.1352 c 12.5106,0 23.185,-4.5348 32.0239,-13.5622 8.8383,-9.0268 13.2365,-19.973 13.2365,-32.7503 0,-12.7775 -4.3982,-23.7237 -13.2365,-32.7505 -8.8389,-9.0274 -19.5133,-13.5628 -32.0239,-13.5628 h -2.1352 z"
     style="fill:#1b1918;fill-rule:evenodd;stroke-width:1.01061"
     id="path118" />
  <g
     id="Layer1002"
     transform="matrix(1,0,0,1.0213286,1748.683,-2615.9353)">
    <path
       d="m 3228.2922,6361.4687 a 26.3562,26.3562 0 0 1 4.1091,37.0461 26.3562,26.3562 0 1 1 -4.1091,-37.0461 z"
       style="fill:#13b17a;fill-rule:evenodd;stroke:#13b17a;stroke-width:0.5;stroke-linecap:butt;stroke-linejoin:miter;stroke-dasharray:none"
       id="path120" />
    <path
       d="m 3230.8844,6366.2879 a 23.5651,23.5651 0 0 1 3.6739,33.123 23.5651,23.5651 0 1 1 -3.6739,-33.123 z"
       style="fill:#ffffff;fill-rule:evenodd;stroke:#ffffff;stroke-width:0.5;stroke-linecap:butt;stroke-linejoin:miter;stroke-dasharray:none"
       id="path122" />
    <path
       d="m 3216.1082,6376.6936 a 6.8568,6.8568 0 0 1 1.069,9.6378 6.8568,6.8568 0 1 1 -1.069,-9.6378 z"
       style="fill:#f76269;fill-rule:evenodd;stroke:#f3202a;stroke-width:0.5;stroke-linecap:butt;stroke-linejoin:miter;stroke-dasharray:none"
       id="path124" />
    <path
       d="m 3215.0889,6376.2898 a 6.245,6.245 0 0 1 0.9736,8.7779 6.245,6.245 0 1 1 -0.9736,-8.7779 z"
       style="fill:#ffffff;fill-rule:evenodd;stroke:#ffffff;stroke-width:0.5;stroke-linecap:butt;stroke-linejoin:miter;stroke-dasharray:none"
       id="path126" />
  </g>
  <g
     id="Layer1003"
     transform="matrix(1,0,0,1.0213286,1748.683,-2615.9353)">
    <path
       d="m 3297.7173,6391.4664 a 26.3562,26.3562 0 0 1 4.109,37.0461 26.3562,26.3562 0 1 1 -4.109,-37.0461 z"
       style="fill:#13b17a;fill-rule:evenodd;stroke:#13b17a;stroke-width:0.5;stroke-linecap:butt;stroke-linejoin:miter;stroke-dasharray:none"
       id="path129" />
    <path
       d="m 3300.3094,6396.2856 a 23.5651,23.5651 0 0 1 3.6739,33.1229 23.5651,23.5651 0 1 1 -3.6739,-33.1229 z"
       style="fill:#ffffff;fill-rule:evenodd;stroke:#ffffff;stroke-width:0.5;stroke-linecap:butt;stroke-linejoin:miter;stroke-dasharray:none"
       id="path131" />
    <path
       d="m 3285.5333,6406.6912 a 6.8568,6.8568 0 0 1 1.069,9.6379 6.8568,6.8568 0 1 1 -1.069,-9.6379 z"
       style="fill:#f76269;fill-rule:evenodd;stroke:#f3202a;stroke-width:0.5;stroke-linecap:butt;stroke-linejoin:miter;stroke-dasharray:none"
       id="path133" />
    <path
       d="m 3284.5139,6406.2874 a 6.245,6.245 0 0 1 0.9736,8.7779 6.245,6.245 0 1 1 -0.9736,-8.7779 z"
       style="fill:#ffffff;fill-rule:evenodd;stroke:#ffffff;stroke-width:0.5;stroke-linecap:butt;stroke-linejoin:miter;stroke-dasharray:none"
       id="path135" />
  </g>
  <g
     id="Layer1004"
     transform="matrix(1,0,0,1.0213286,1748.683,-2615.9353)">
    <path
       d="m 3367.3629,6420.8285 a 26.3562,26.3562 0 0 1 4.1091,37.0461 26.3562,26.3562 0 1 1 -4.1091,-37.0461 z"
       style="fill:#13b17a;fill-rule:evenodd;stroke:#13b17a;stroke-width:0.5;stroke-linecap:butt;stroke-linejoin:miter;stroke-dasharray:none"
       id="path138" />
    <path
       d="m 3369.9551,6425.6477 a 23.5651,23.5651 0 0 1 3.6739,33.1229 23.5651,23.5651 0 1 1 -3.6739,-33.1229 z"
       style="fill:#ffffff;fill-rule:evenodd;stroke:#ffffff;stroke-width:0.5;stroke-linecap:butt;stroke-linejoin:miter;stroke-dasharray:none"
       id="path140" />
    <path
       d="m 3355.1789,6436.0533 a 6.8568,6.8568 0 0 1 1.069,9.6378 6.8568,6.8568 0 1 1 -1.069,-9.6378 z"
       style="fill:#f76269;fill-rule:evenodd;stroke:#f3202a;stroke-width:0.5;stroke-linecap:butt;stroke-linejoin:miter;stroke-dasharray:none"
       id="path142" />
    <path
       d="m 3354.1596,6435.6495 a 6.245,6.245 0 0 1 0.9736,8.7779 6.245,6.245 0 1 1 -0.9736,-8.7779 z"
       style="fill:#ffffff;fill-rule:evenodd;stroke:#ffffff;stroke-width:0.5;stroke-linecap:butt;stroke-linejoin:miter;stroke-dasharray:none"
       id="path144" />
  </g>
  <g
     id="Layer1005"
     transform="matrix(1,0,0,1.0213286,1748.683,-2615.9353)">
    <path
       d="m 2718.9502,6145.064 a 21.1565,21.1565 0 0 1 9.218,28.4644 21.1565,21.1565 0 1 1 -9.218,-28.4644 z"
       style="fill:#13b17a;fill-rule:evenodd;stroke:#13b17a;stroke-width:0.5;stroke-linecap:butt;stroke-linejoin:miter;stroke-dasharray:none"
       id="path147" />
    <path
       d="m 2721.7672,6148.4343 a 18.916,18.916 0 0 1 8.2418,25.45 18.916,18.916 0 1 1 -8.2418,-25.45 z"
       style="fill:#ffffff;fill-rule:evenodd;stroke:#ffffff;stroke-width:0.5;stroke-linecap:butt;stroke-linejoin:miter;stroke-dasharray:none"
       id="path149" />
    <path
       d="m 2711.8307,6159.004 a 5.504,5.504 0 0 1 2.3982,7.4053 5.504,5.504 0 1 1 -2.3982,-7.4053 z"
       style="fill:#f76269;fill-rule:evenodd;stroke:#f3202a;stroke-width:0.5;stroke-linecap:butt;stroke-linejoin:miter;stroke-dasharray:none"
       id="path151" />
    <path
       d="m 2710.964,6158.8513 a 5.0129,5.0129 0 0 1 2.1841,6.7445 5.0129,5.0129 0 1 1 -2.1841,-6.7445 z"
       style="fill:#ffffff;fill-rule:evenodd;stroke:#ffffff;stroke-width:0.5;stroke-linecap:butt;stroke-linejoin:miter;stroke-dasharray:none"
       id="path153" />
  </g>
  <g
     id="Layer1006"
     transform="matrix(1,0,0,1.0213286,1748.683,-2615.9353)">
    <path
       d="m 2778.3855,6157.4305 a 21.1565,21.1565 0 0 1 9.2179,28.4644 21.1565,21.1565 0 1 1 -9.2179,-28.4644 z"
       style="fill:#13b17a;fill-rule:evenodd;stroke:#13b17a;stroke-width:0.5;stroke-linecap:butt;stroke-linejoin:miter;stroke-dasharray:none"
       id="path156" />
    <path
       d="m 2781.2025,6160.8008 a 18.916,18.916 0 0 1 8.2417,25.4501 18.916,18.916 0 1 1 -8.2417,-25.4501 z"
       style="fill:#ffffff;fill-rule:evenodd;stroke:#ffffff;stroke-width:0.5;stroke-linecap:butt;stroke-linejoin:miter;stroke-dasharray:none"
       id="path158" />
    <path
       d="m 2771.266,6171.3705 a 5.504,5.504 0 0 1 2.3981,7.4053 5.504,5.504 0 1 1 -2.3981,-7.4053 z"
       style="fill:#f76269;fill-rule:evenodd;stroke:#f3202a;stroke-width:0.5;stroke-linecap:butt;stroke-linejoin:miter;stroke-dasharray:none"
       id="path160" />
    <path
       d="m 2770.3992,6171.2178 a 5.0129,5.0129 0 0 1 2.1842,6.7445 5.0129,5.0129 0 1 1 -2.1842,-6.7445 z"
       style="fill:#ffffff;fill-rule:evenodd;stroke:#ffffff;stroke-width:0.5;stroke-linecap:butt;stroke-linejoin:miter;stroke-dasharray:none"
       id="path162" />
  </g>
  <g
     id="Layer1007"
     transform="matrix(1,0,0,1.0213286,1748.683,-2615.9353)">
    <path
       d="m 2837.8914,6169.2617 a 21.1565,21.1565 0 0 1 9.218,28.4644 21.1565,21.1565 0 1 1 -9.218,-28.4644 z"
       style="fill:#13b17a;fill-rule:evenodd;stroke:#13b17a;stroke-width:0.5;stroke-linecap:butt;stroke-linejoin:miter;stroke-dasharray:none"
       id="path165" />
    <path
       d="m 2840.7084,6172.632 a 18.916,18.916 0 0 1 8.2418,25.45 18.916,18.916 0 1 1 -8.2418,-25.45 z"
       style="fill:#ffffff;fill-rule:evenodd;stroke:#ffffff;stroke-width:0.5;stroke-linecap:butt;stroke-linejoin:miter;stroke-dasharray:none"
       id="path167" />
    <path
       d="m 2830.7719,6183.2017 a 5.504,5.504 0 0 1 2.3982,7.4052 5.504,5.504 0 1 1 -2.3982,-7.4052 z"
       style="fill:#f76269;fill-rule:evenodd;stroke:#f3202a;stroke-width:0.5;stroke-linecap:butt;stroke-linejoin:miter;stroke-dasharray:none"
       id="path169" />
    <path
       d="m 2829.9052,6183.0489 a 5.0129,5.0129 0 0 1 2.1841,6.7445 5.0129,5.0129 0 1 1 -2.1841,-6.7445 z"
       style="fill:#ffffff;fill-rule:evenodd;stroke:#ffffff;stroke-width:0.5;stroke-linecap:butt;stroke-linejoin:miter;stroke-dasharray:none"
       id="path171" />
  </g>
  <defs
     id="defs180">
    <linearGradient
       id="grad3">
      <stop
         offset="0%"
         stop-color="#009035"
         stop-opacity="1.0000"
         id="stop174" />
      <stop
         offset="100%"
         stop-color="#e30016"
         stop-opacity="1.0000"
         id="stop176" />
    </linearGradient>
    <linearGradient
       xlink:href="#grad3"
       id="grad4"
       x1="-3172.7434"
       y1="1414.6584"
       x2="-3172.7434"
       y2="2656.1152"
       gradientTransform="matrix(0.54898413,0,0,1.8603973,1748.683,-2615.9354)"
       gradientUnits="userSpaceOnUse" />
  </defs>
  <path
     d="m 413.70186,15.891312 c -8.5876,40.109922 -25.5835,78.250926 -53.2142,111.244428 -99.2121,118.46595 -148.9677,240.96359 -72.648,339.50279 151.4137,195.49425 527.50536,310.48726 357.2759,609.22847 -133.2454,233.8362 -523.8193,124.6296 -528.0106,451.3095 -1.338,104.4328 -3.9291,212.0947 25.5773,415.162 21.0124,144.6172 -57.840698,294.1832 -135.7848978,383.1558 v -103.2586 c 46.6726998,-92.3848 83.1361998,-175.2719 77.0827998,-249.3578 -37.1917,-455.1418 -37.2376,-601.6141 70.254098,-696.1378 154.2529,-135.6406 354.8798,-85.9947 445.4694,-240.4393 C 736.05012,803.84732 417.57796,693.54843 251.71206,504.42494 86.233062,315.74132 312.73856,193.43886 367.17996,15.891312 Z"
     style="fill:url(#grad4);stroke-width:1.01061"
     id="path182" />
  <defs
     id="defs190">
    <linearGradient
       id="grad5">
      <stop
         offset="0%"
         stop-color="#009035"
         stop-opacity="1.0000"
         id="stop184" />
      <stop
         offset="100%"
         stop-color="#009035"
         stop-opacity="1.0000"
         id="stop186" />
    </linearGradient>
    <linearGradient
       xlink:href="#grad5"
       id="grad6"
       x1="-2682.1899"
       y1="1673.3893"
       x2="-2682.1899"
       y2="3499.1165"
       gradientTransform="matrix(0.64938938,0,0,1.5727523,1748.683,-2615.9354)"
       gradientUnits="userSpaceOnUse" />
  </defs>
  <path
     d="M 48.908762,15.891312 C 73.052562,246.81411 336.36106,239.33931 632.47386,453.47882 1390.6619,1001.779 858.46202,1537.5604 831.35482,1823.6442 c -40.1057,423.261 -65.6127,343.6347 361.15028,1063.6634 C 439.59806,1889.8118 850.85092,1771.3409 970.89222,1209.7392 1026.0916,951.48149 829.86552,662.33725 605.64106,499.81589 254.66836,245.42827 58.554762,199.98323 6.8973622,67.001555 V 15.891312 Z"
     style="fill:url(#grad6);stroke-width:1.01061"
     id="path192" />
  <defs
     id="defs200">
    <linearGradient
       id="grad7">
      <stop
         offset="0%"
         stop-color="#e30016"
         stop-opacity="1.0000"
         id="stop194" />
      <stop
         offset="100%"
         stop-color="#ffffff"
         stop-opacity="1.0000"
         id="stop196" />
    </linearGradient>
    <linearGradient
       xlink:href="#grad7"
       id="grad8"
       x1="-1942.281"
       y1="2581.998"
       x2="-1942.281"
       y2="3398.4641"
       gradientTransform="matrix(0.89677326,0,0,1.1388928,1748.683,-2615.9354)"
       gradientUnits="userSpaceOnUse" />
  </defs>
  <path
     d="M 650.55066,655.20256 C 430.45746,1043.3541 220.77926,1048.1753 6.8973622,1254.5508 v -80.4923 C 262.77346,894.64067 502.28826,963.8461 739.08232,324.68346 c -7.829,96.87139 -63.07366,253.87145 -88.53166,330.5191 z"
     style="fill:url(#grad8);stroke-width:1.01061"
     id="path202" />
  <defs
     id="defs210">
    <linearGradient
       id="grad9">
      <stop
         offset="0%"
         stop-color="#ffffff"
         stop-opacity="1.0000"
         id="stop204" />
      <stop
         offset="100%"
         stop-color="#e30016"
         stop-opacity="1.0000"
         id="stop206" />
    </linearGradient>
    <linearGradient
       xlink:href="#grad9"
       id="grad10"
       x1="-2376.9302"
       y1="1644.5753"
       x2="-2376.9302"
       y2="2805.0588"
       gradientTransform="matrix(0.63820758,0,0,1.6003078,1748.683,-2615.9354)"
       gradientUnits="userSpaceOnUse" />
  </defs>
  <path
     d="M 547.09316,808.09329 C 532.21586,1391.185 784.58092,1393.1065 972.33762,1873.0222 751.98842,1514.488 478.48796,1321.6232 485.83196,801.7397 596.89426,363.8554 386.68596,478.02094 231.70826,15.891312 h 10.1188 c 308.393,500.248888 371.4786,410.646898 305.2661,792.201978 z"
     style="fill:url(#grad10);stroke-width:1.01061"
     id="path212" />
  <defs
     id="defs220">
    <linearGradient
       id="grad11">
      <stop
         offset="0%"
         stop-color="#ffffff"
         stop-opacity="1.0000"
         id="stop214" />
      <stop
         offset="100%"
         stop-color="#009035"
         stop-opacity="1.0000"
         id="stop216" />
    </linearGradient>
    <linearGradient
       xlink:href="#grad11"
       id="grad12"
       x1="-3835.3845"
       y1="1170.2472"
       x2="-3835.3845"
       y2="1921.3525"
       gradientTransform="matrix(0.45413587,0,0,2.2489494,1748.683,-2615.9354)"
       gradientUnits="userSpaceOnUse" />
  </defs>
  <path
     d="M 293.15426,15.891312 C 227.92006,88.644733 113.67896,141.10548 6.8973622,208.13639 v 50.78884 C 127.72296,175.48779 276.08946,102.83538 348.00126,15.891312 Z M 6.8973622,1705.0893 c 30.7918998,-57.1224 44.0537998,-127.439 29.6457998,-223.5443 -7.509,-50.0906 -17.7236,-100.2561 -29.6457998,-150.1682 z"
     style="fill:url(#grad12);stroke-width:1.01061"
     id="path222" />
  <defs
     id="defs230">
    <linearGradient
       id="grad13">
      <stop
         offset="0%"
         stop-color="#009035"
         stop-opacity="1.0000"
         id="stop224" />
      <stop
         offset="100%"
         stop-color="#e30016"
         stop-opacity="1.0000"
         id="stop226" />
    </linearGradient>
    <linearGradient
       xlink:href="#grad13"
       id="grad14"
       x1="-3215.1997"
       y1="1395.978"
       x2="-3215.1997"
       y2="1974.7891"
       gradientTransform="matrix(0.54173487,0,0,1.8852923,1748.683,-2615.9354)"
       gradientUnits="userSpaceOnUse" />
  </defs>
  <path
     d="M 96.348862,15.891312 C 172.89446,173.11494 313.24936,398.07675 319.93146,503.86965 327.17656,618.64461 259.68736,790.76696 128.54336,945.62437 75.381762,1008.3995 45.293162,1055.9982 6.8973622,1107.1194 V 1002.5206 C 150.56486,812.64269 258.25896,599.5042 251.93966,485.34265 246.85946,393.54879 122.33826,165.36795 54.444862,15.891312 Z"
     style="fill:url(#grad14);stroke-width:1.01061"
     id="path232" />
  <defs
     id="defs240">
    <linearGradient
       id="grad15">
      <stop
         offset="0%"
         stop-color="#ffffff"
         stop-opacity="1.0000"
         id="stop234" />
      <stop
         offset="100%"
         stop-color="#009035"
         stop-opacity="1.0000"
         id="stop236" />
    </linearGradient>
    <linearGradient
       xlink:href="#grad15"
       id="grad16"
       x1="-2051.4958"
       y1="2187.8416"
       x2="-2051.4958"
       y2="2580.0918"
       gradientTransform="matrix(0.84903203,0,0,1.202933,1748.683,-2615.9354)"
       gradientUnits="userSpaceOnUse" />
  </defs>
  <path
     d="M 6.8973622,249.62736 C 36.861762,210.42734 77.811062,175.66346 134.26026,147.37858 c 58.968,-29.54714 110.2045,-72.775378 151.0296,-131.487268 h 54.6406 C 314.98566,75.599099 283.21406,123.50267 250.14306,149.6588 80.590462,283.75944 33.941862,372.11223 6.8973622,487.74215 Z"
     style="fill:url(#grad16);stroke-width:1.01061"
     id="path242" />
  <defs
     id="defs250">
    <linearGradient
       id="grad17">
      <stop
         offset="0%"
         stop-color="#ffffff"
         stop-opacity="1.0000"
         id="stop244" />
      <stop
         offset="100%"
         stop-color="#e30016"
         stop-opacity="1.0000"
         id="stop246" />
    </linearGradient>
    <linearGradient
       xlink:href="#grad17"
       id="grad18"
       x1="-3589.5474"
       y1="1154.4413"
       x2="-3589.5474"
       y2="2514.769"
       gradientTransform="matrix(0.44800211,0,0,2.2797407,1748.683,-2615.9354)"
       gradientUnits="userSpaceOnUse" />
  </defs>
  <path
     d="m 559.38366,15.891312 c 22.5703,159.128908 -107.2344,256.757608 -186.8462,357.171058 -80.5927,101.65089 -199.7175,346.86892 -224.0898,620.17052 -49.115098,550.78521 137.2878,246.31111 386.8415,821.56461 171.48296,290.0143 202.68106,783.5908 142.5753,1302.2881 22.68396,-59.1976 35.53996,-233.0888 49.40386,-314.7331 25.261,-359.5619 75.5893,-531.03 -157.69066,-1070.017 -177.7216,-426.7136 -384.3006,-172.6621 -360.4584,-629.4705 -8.7316,-133.89541 57.4381,-562.05359 186.6895,-685.3587 100.1681,-95.5604 232.3766,-211.49141 217.7175,-401.614988 z"
     style="fill:url(#grad18);stroke-width:1.01061"
     id="path252" />
  <defs
     id="defs260">
    <linearGradient
       id="grad19">
      <stop
         offset="0%"
         stop-color="#e30016"
         stop-opacity="1.0000"
         id="stop254" />
      <stop
         offset="100%"
         stop-color="#ffffff"
         stop-opacity="1.0000"
         id="stop256" />
    </linearGradient>
    <linearGradient
       xlink:href="#grad19"
       id="grad20"
       x1="-2177.0161"
       y1="1643.3887"
       x2="-2177.0161"
       y2="2863.3875"
       gradientTransform="matrix(0.63774711,0,0,1.6014633,1748.683,-2615.9354)"
       gradientUnits="userSpaceOnUse" />
  </defs>
  <path
     d="m 1025.5759,1380.4355 c 90.9227,180.1988 82.5075,485.674 95.3677,589.2389 95.3949,-740.9968 -221.37498,-766.2511 -463.19204,-907.5861 -174.9065,-102.22702 -241.342,-297.22417 -224.2528,-722.44523 2.9024,-72.22999 36.1621,-192.37388 74.4069,-323.751758 h -47.0472 C 75.861462,1181.9254 912.46592,1156.2606 1025.5759,1380.4355 Z"
     style="fill:url(#grad20);stroke-width:1.01061"
     id="path262" />
  <defs
     id="defs270">
    <linearGradient
       id="grad21">
      <stop
         offset="0%"
         stop-color="#ffffff"
         stop-opacity="1.0000"
         id="stop264" />
      <stop
         offset="100%"
         stop-color="#e30016"
         stop-opacity="1.0000"
         id="stop266" />
    </linearGradient>
    <linearGradient
       xlink:href="#grad21"
       id="grad22"
       x1="-3666.3215"
       y1="1425.1853"
       x2="-3666.3215"
       y2="2543.9639"
       gradientTransform="matrix(0.47507718,0,0,2.1498161,1748.683,-2615.9354)"
       gradientUnits="userSpaceOnUse" />
  </defs>
  <path
     d="m 159.52396,447.95098 c 127.2714,142.43388 298.9653,563.49552 241.3503,758.22842 -60.5276,204.5782 -275.8266,327.2565 -393.9768978,460.894 v 113.3842 C 78.338362,1629.7454 350.86146,1469.526 449.95586,1224.1962 528.11466,1030.6969 352.60106,652.5133 159.52396,447.95098 Z M 6.8973622,2108.4712 C 176.60076,2317.0672 543.37646,2422.7469 513.07686,2853.119 660.06236,2374.3703 124.36506,2294.9214 6.8973622,2009.8362 Z"
     style="fill:url(#grad22);stroke-width:1.01061"
     id="path272" />
  <defs
     id="defs280">
    <linearGradient
       id="grad23">
      <stop
         offset="0%"
         stop-color="#009035"
         stop-opacity="1.0000"
         id="stop274" />
      <stop
         offset="100%"
         stop-color="#ffffff"
         stop-opacity="1.0000"
         id="stop276" />
    </linearGradient>
    <linearGradient
       xlink:href="#grad23"
       id="grad24"
       x1="-5501.9839"
       y1="842.65594"
       x2="-5501.9839"
       y2="1098.1127"
       gradientTransform="matrix(0.31657413,0,0,3.226191,1748.683,-2615.9354)"
       gradientUnits="userSpaceOnUse" />
  </defs>
  <path
     d="M 6.8973622,686.58226 C 17.289662,597.13952 19.614662,490.9097 14.523962,364.24187 c -0.7339,-18.26197 -3.422,-39.60876 -7.6265998,-63.40306 V 102.63356 c 122.1501978,401.90485 92.4907998,654.62463 0,824.1523 z"
     style="fill:url(#grad24);stroke-width:1.01061"
     id="path282" />
  <defs
     id="defs290">
    <linearGradient
       id="grad25">
      <stop
         offset="0%"
         stop-color="#e30016"
         stop-opacity="1.0000"
         id="stop284" />
      <stop
         offset="100%"
         stop-color="#009035"
         stop-opacity="1.0000"
         id="stop286" />
    </linearGradient>
    <linearGradient
       xlink:href="#grad25"
       id="grad26"
       x1="-4314.5435"
       y1="1040.2834"
       x2="-4314.5435"
       y2="2176.312"
       gradientTransform="matrix(0.40370105,0,0,2.5299132,1748.683,-2615.9354)"
       gradientUnits="userSpaceOnUse" />
  </defs>
  <path
     d="M 442.16336,15.891312 C 354.43166,111.54302 216.85496,210.56542 88.154762,381.56125 c -30.4646,40.47617 -57.3359,79.69386 -81.2573998,117.84386 v 116.2943 C 40.416162,544.503 81.174162,476.97959 126.09676,417.16732 269.06606,226.81241 385.64736,107.57904 465.51326,15.891312 Z M 6.8973622,1404.6974 c 99.2031978,140.5668 216.0254978,251.2825 254.4731978,351.2812 150.59,391.6689 153.86,307.2748 -63.2066,1133.9661 431.9376,-1136.2061 71.9685,-1176.5641 -191.2665978,-1602.94 z"
     style="fill:url(#grad26);stroke-width:1.01061"
     id="path292" />
  <path
     d="m 2054.841,1400.5166 h -57.2072 V 970.89602 h 218.7331 l -3.6442,30.50608 -157.8817,2.1504 v 173.5659 l 152.2736,1.7161 -4.0693,27.4941 -148.2043,3.4393 z m 349.6949,-292.9983 c 12.343,0 24.4026,1.861 36.1788,5.4382 11.7762,3.584 22.5738,9.739 32.2512,18.1891 9.6706,8.4502 18.2277,19.7607 25.3744,33.9385 7.2952,14.033 12.7615,31.5054 16.2639,52.4171 v 3.4325 c -2.5239,3.012 -5.743,5.8723 -10.089,8.3123 -4.2111,2.5709 -9.8191,4.7213 -16.6891,6.7271 -6.7283,1.8609 -15.1437,3.7219 -25.2395,5.1555 -9.954,1.5784 -22.0136,2.7225 -35.8953,3.5771 l -91.2805,6.3066 v 18.0446 c 0,33.9384 5.8914,58.5651 17.6676,74.0318 11.7762,15.3288 29.5855,23.0552 53.4213,23.0552 9.9541,0 20.1916,-0.9993 30.7058,-3.005 10.5209,-1.861 20.6167,-4.2941 30.1523,-7.1614 9.6707,-2.8603 18.3628,-5.7276 26.218,-8.5879 7.7136,-3.012 13.8818,-5.5898 18.2278,-7.8781 l 7.0117,16.3283 c -7.9902,5.2933 -16.824,10.8831 -26.6431,16.7486 -9.9541,5.8724 -20.4683,11.1726 -31.8261,16.1835 -11.3577,4.8729 -23.2756,8.8775 -35.7536,12.0342 -12.4848,3.2878 -25.2395,4.8661 -38.4194,4.8661 -15.5688,0 -30.0106,-2.5778 -43.3322,-7.5886 -13.3148,-5.0108 -24.8143,-13.0336 -34.6334,-24.2063 -9.9541,-11.1657 -17.6609,-25.7709 -23.2757,-43.8154 -5.608,-18.0444 -8.4086,-39.8107 -8.4086,-65.4507 0,-28.783 3.2258,-53.2718 9.8123,-73.315 6.5933,-20.195 15.7038,-36.3784 27.0616,-48.5505 11.4995,-12.3168 25.0977,-21.3391 40.6666,-26.9219 15.7038,-5.5829 32.5278,-8.3055 50.4722,-8.3055 z m -46.4096,41.3893 c -3.0841,2.2882 -5.8847,5.8654 -8.5504,10.7384 -2.5239,4.866 -4.7712,10.7384 -6.735,17.6102 -1.9571,6.8786 -3.5025,14.3225 -4.7645,22.3453 -1.2619,8.1607 -1.8221,16.3213 -1.8221,24.7715 l 117.782,-5.0108 c -1.4037,-9.4496 -3.3675,-19.0438 -6.0332,-28.7829 -2.524,-9.5943 -6.1682,-18.1892 -10.6559,-25.7778 -4.4878,-7.4507 -10.2308,-13.6057 -17.1075,-18.3339 -6.87,-4.7214 -15.2787,-7.1612 -25.0978,-7.1612 -6.5865,0 -13.1798,0.7167 -19.6247,2.1504 -6.4516,1.2889 -12.2013,3.8666 -17.3909,7.4508 z m 418.5433,-35.9511 c -0.2835,-4.1493 -0.4185,-8.3055 -0.4185,-12.5994 -0.2834,-3.2946 -0.4251,-6.8718 -0.4251,-10.5938 0,-3.8666 0,-6.8786 0,-9.0222 V 930.2306 l 55.1084,-14.3226 v 484.6086 h -36.5972 l -15.2854,-27.2114 h -1.1203 c -5.8914,4.3009 -11.9179,8.3054 -18.086,12.0342 -6.3099,3.7219 -12.9032,7.1544 -19.6315,10.3111 -6.7282,3.0052 -13.8817,5.4382 -21.5952,7.2992 -7.5719,1.8609 -15.7038,2.7225 -24.2542,2.7225 -15.2854,0 -30.1457,-2.5778 -44.3108,-7.5886 -14.3001,-5.0108 -26.9198,-13.0336 -37.8592,-24.2063 -10.9326,-11.1657 -19.7664,-25.7709 -26.3597,-43.8154 -6.5866,-18.0444 -9.8124,-39.8107 -9.8124,-65.4507 0,-24.6268 3.2258,-46.6827 9.6707,-66.1607 6.4515,-19.616 15.7105,-36.082 27.9051,-49.5429 12.2013,-13.3232 27.0616,-23.6343 44.4525,-30.6508 17.3842,-7.1613 37.0156,-10.7385 59.0293,-10.7385 8.6921,0 18.3627,0.5721 28.742,1.7163 10.3792,1.1441 20.6099,2.2951 30.8475,3.7219 z m -141.7595,148.5048 c 0,19.0508 1.8221,35.2342 5.608,48.6952 3.651,13.3162 8.9756,24.3442 15.7039,33.0769 6.8699,8.5949 15.1436,14.8946 24.6793,18.7613 9.6774,3.8666 20.1916,5.8723 31.691,5.8723 11.4995,0 22.7156,-1.1441 33.6482,-3.584 10.9393,-2.2883 20.6167,-5.2935 29.1671,-9.0222 v -211.7984 c -8.6921,-1.4336 -17.2492,-2.433 -25.2395,-3.1497 -8.132,-0.7169 -16.8241,-1.0063 -26.0763,-1.0063 -13.1866,0 -25.2394,1.151 -36.4622,3.2946 -11.0744,2.2951 -19.6247,5.8723 -25.6579,10.8831 -2.9424,2.8673 -6.0264,7.0166 -9.2522,12.6063 -3.0841,5.5829 -6.0265,12.7441 -8.8338,21.6216 -2.6657,8.7397 -4.9062,19.3334 -6.4516,31.5054 -1.6804,12.3169 -2.524,26.3499 -2.524,42.2439 z m 406.342,-153.943 c 12.343,0 24.4026,1.861 36.1788,5.4382 11.7761,3.584 22.5738,9.739 32.2512,18.1891 9.6706,8.4502 18.2277,19.7607 25.3744,33.9385 7.2952,14.033 12.7615,31.5054 16.2639,52.4171 v 3.4325 c -2.5239,3.012 -5.743,5.8723 -10.089,8.3123 -4.2111,2.5709 -9.8191,4.7213 -16.6891,6.7271 -6.7283,1.8609 -15.1437,3.7219 -25.2395,5.1555 -9.954,1.5784 -22.0136,2.7225 -35.8953,3.5771 l -91.2805,6.3066 v 18.0446 c 0,33.9384 5.8914,58.5651 17.6676,74.0318 11.7762,15.3288 29.5855,23.0552 53.4213,23.0552 9.954,0 20.1916,-0.9993 30.7058,-3.005 10.5209,-1.861 20.6167,-4.2941 30.1523,-7.1614 9.6707,-2.8603 18.3628,-5.7276 26.218,-8.5879 7.7136,-3.012 13.8818,-5.5898 18.2278,-7.8781 l 7.0117,16.3283 c -7.9902,5.2933 -16.824,10.8831 -26.6431,16.7486 -9.9541,5.8724 -20.4683,11.1726 -31.8261,16.1835 -11.3577,4.8729 -23.2756,8.8775 -35.7536,12.0342 -12.4848,3.2878 -25.2395,4.8661 -38.4194,4.8661 -15.5688,0 -30.0106,-2.5778 -43.3322,-7.5886 -13.3148,-5.0108 -24.8143,-13.0336 -34.6334,-24.2063 -9.9541,-11.1657 -17.6609,-25.7709 -23.2757,-43.8154 -5.608,-18.0444 -8.4086,-39.8107 -8.4086,-65.4507 0,-28.783 3.2258,-53.2718 9.8123,-73.315 6.5933,-20.195 15.7038,-36.3784 27.0616,-48.5505 11.4995,-12.3168 25.0977,-21.3391 40.6666,-26.9219 15.7038,-5.5829 32.5278,-8.3055 50.4722,-8.3055 z m -46.4096,41.3893 c -3.0841,2.2882 -5.8847,5.8654 -8.5504,10.7384 -2.5239,4.866 -4.7712,10.7384 -6.735,17.6102 -1.9571,6.8786 -3.5025,14.3225 -4.7645,22.3453 -1.2619,8.1607 -1.8221,16.3213 -1.8221,24.7715 l 117.782,-5.0108 c -1.4037,-9.4496 -3.3676,-19.0438 -6.0332,-28.7829 -2.524,-9.5943 -6.1682,-18.1892 -10.6559,-25.7778 -4.4878,-7.4507 -10.2308,-13.6057 -17.1075,-18.3339 -6.87,-4.7214 -15.2787,-7.1612 -25.0978,-7.1612 -6.5865,0 -13.1798,0.7167 -19.6247,2.1504 -6.4516,1.2889 -12.2013,3.8666 -17.3909,7.4508 z m 379.7055,10.5936 c -6.1681,-0.5721 -13.3216,-1.2888 -21.1768,-2.0057 -7.8486,-0.7168 -15.2787,-0.9994 -22.2904,-0.9994 -5.1896,0 -9.5357,0.5721 -13.1799,1.7163 -3.7859,0.9993 -7.2951,2.8671 -10.6559,5.1555 -3.3675,2.433 -6.735,5.1555 -9.9608,8.4501 -3.2191,3.1499 -7.005,6.8718 -11.351,11.028 v 217.6706 h -55.5268 v -286.9811 h 46.5512 l 7.7136,44.8216 h 0.4184 c 2.9424,-3.5841 6.1682,-7.5886 9.394,-11.8895 3.2258,-4.294 6.5865,-8.4502 9.954,-12.3168 3.3675,-4.0045 7.0117,-7.5886 10.7977,-11.0211 3.7859,-3.2946 7.8485,-6.0171 12.2013,-7.8781 7.2884,-3.2946 15.5621,-5.445 24.8143,-6.2996 9.1172,-1.0064 19.348,-1.4337 30.4291,-1.4337 z m 277.344,210.9437 c 7.4368,0 17.1075,-1.7231 29.1671,-5.0109 v 18.0444 c -8.8338,4.7214 -18.3695,9.3048 -28.742,13.7436 -10.3792,4.4387 -21.4535,6.734 -32.953,6.734 -6.5866,0 -12.2013,-1.0063 -16.8241,-3.1499 -4.6294,-2.1504 -8.4154,-4.873 -11.4994,-8.4502 -2.9424,-3.4393 -5.4663,-7.3059 -7.4302,-11.4552 -1.8221,-4.1562 -3.5092,-8.4502 -4.9061,-12.6063 -7.1535,4.7282 -13.8817,9.3117 -20.475,13.8952 -6.5866,4.4387 -13.4566,8.4432 -20.7518,11.8826 -7.1466,3.5772 -15.0019,6.2997 -23.1339,8.4501 -8.1319,2.1504 -17.3842,3.1499 -27.48,3.1499 -22.9989,0 -41.085,-6.4445 -54.2648,-19.4781 -13.3216,-13.0267 -19.9082,-32.7943 -19.9082,-58.9994 0,-14.0331 1.9571,-26.2051 5.8848,-36.8058 4.0693,-10.4489 10.3792,-19.3333 19.0713,-26.3498 8.8338,-7.1543 20.1916,-12.5995 34.0733,-16.1766 13.8817,-3.7288 30.9824,-5.7345 51.174,-6.3066 l 50.4789,-1.7162 v -50.4114 c 0,-15.8941 -3.084,-27.3493 -9.3939,-34.7931 -6.3099,-7.3061 -16.8241,-11.028 -31.5493,-11.028 -10.656,0 -23.5524,2.0058 -38.8378,6.0103 -15.2854,4.0114 -30.2873,9.1669 -45.0126,15.4666 l -9.8124,-26.6324 c 8.6921,-3.7219 17.9511,-7.3061 27.6217,-11.1727 9.6774,-3.7219 19.6315,-7.0165 29.7273,-10.0216 10.0958,-2.8673 20.3333,-5.1556 30.7057,-7.0165 10.3793,-1.861 20.61,-2.7226 30.8475,-2.7226 11.0811,0 21.1701,1.2889 30.0039,3.7219 8.9756,2.5778 16.4057,6.8718 22.5806,12.7442 6.1681,6.0171 10.7909,14.033 13.8817,23.9168 3.219,9.8838 4.7645,22.2007 4.7645,36.661 v 136.9048 c 0,32.6496 7.7135,48.9779 22.9922,48.9779 z m -76.8319,-21.4838 c 0,-1.4336 -0.2835,-9.4496 -0.8436,-24.1995 -0.5601,-14.7498 -0.8436,-35.6615 -0.8436,-62.5835 -29.7272,0 -52.301,2.0058 -67.4447,5.8724 -15.2786,4.0114 -24.8143,7.8781 -28.3235,11.7448 -3.2258,3.7219 -5.608,8.8774 -7.1467,15.6114 -1.5454,6.727 -2.2473,14.6051 -2.2473,23.6273 0,16.0388 2.6657,28.3556 7.997,36.8058 5.3246,8.5879 14.3001,12.882 26.7782,12.882 13.3215,0 25.6578,-1.5715 36.8739,-4.5767 11.081,-3.1498 22.8572,-8.1676 35.2003,-15.184 z m 345.207,-186.4548 c -5.1896,-2.433 -11.3577,-5.1555 -18.5111,-7.8711 -7.005,-2.7226 -14.4419,-5.1556 -21.872,-7.1613 -7.5718,-2.1505 -14.8602,-3.8667 -22.1554,-5.3003 -7.1467,-1.2889 -13.4565,-2.0058 -18.6462,-2.0058 -6.5933,0 -13.0381,1.1442 -19.4897,3.2946 -6.3099,2.2883 -12.7614,6.1551 -18.9296,11.7448 -3.0841,2.8603 -6.0264,6.5823 -8.8338,11.3105 -2.9424,4.873 -5.4663,11.3175 -7.5718,19.6229 -2.2405,8.1606 -3.9277,18.4717 -5.1897,30.7886 -1.2619,12.3168 -1.8221,27.2045 -1.8221,44.8216 0,20.1949 1.5455,36.9436 4.4878,50.2667 3.0841,13.4609 7.5719,24.1994 13.74,32.0775 6.1681,8.0159 13.8817,13.6057 22.999,17.0381 9.1105,3.2946 19.7664,5.0108 31.826,5.0108 13.605,0 27.7634,-1.7162 42.6236,-5.1486 14.7253,-3.4393 28.1886,-8.0228 40.1065,-13.7504 l 7.4301,17.1828 c -7.1534,5.4451 -14.8602,10.6007 -23.1339,15.6114 -8.4154,5.0109 -17.1075,9.4497 -26.5014,13.1716 -9.259,3.8666 -18.9296,6.8786 -29.0254,9.1669 -10.0958,2.1504 -20.61,3.2946 -31.5494,3.2946 -15.5621,0 -30.1456,-2.5778 -43.8856,-7.5886 -13.605,-5.0108 -25.5229,-13.0336 -35.6187,-24.2063 -10.0958,-11.1657 -18.086,-25.7709 -23.8358,-43.8154 -5.7497,-18.0444 -8.5503,-39.8107 -8.5503,-65.4507 0,-24.6268 2.9423,-46.6827 8.9755,-66.016 6.0264,-19.4781 14.8602,-35.9441 26.4947,-49.4051 11.4995,-13.6057 25.9413,-23.9168 43.1905,-30.9333 17.1075,-7.1613 37.0156,-10.7385 59.3128,-10.7385 13.4565,0 26.9198,0.7168 40.5181,2.2883 13.74,1.5784 26.2247,3.4393 37.7175,5.5898 z m 83.9921,238.0103 v -286.9811 h 55.5269 v 286.9811 z m 27.2033,-434.7692 37.5758,38.2324 -37.5758,38.2394 -37.299,-38.2394 z m 247.3401,439.9248 c -44.1691,0 -77.9589,-12.5994 -101.3763,-37.9499 -23.4174,-25.2057 -35.1936,-62.1493 -35.1936,-110.6998 0,-22.9104 2.9424,-43.6774 8.6921,-62.1492 5.7498,-18.6165 14.3002,-34.3726 25.7996,-47.1168 11.4995,-12.8889 25.7996,-22.7658 42.7654,-29.7823 16.9658,-7.0166 36.739,-10.4559 59.3128,-10.4559 22.1554,0 41.7801,3.2946 58.7458,9.8838 16.9658,6.5823 31.2727,16.1766 42.7654,28.7829 11.4995,12.7441 20.0566,28.3556 25.7996,46.8273 5.7498,18.3271 8.6989,39.3836 8.6989,63.1556 0,23.2 -2.9491,43.9601 -8.6989,62.4319 -5.743,18.3339 -14.3001,34.0832 -25.7996,47.1168 -11.4927,12.8889 -25.7996,22.9106 -42.7654,29.6445 -16.9657,6.8718 -36.5904,10.3111 -58.7458,10.3111 z m -77.6823,-149.3664 c 0,20.9117 1.4037,38.8114 4.3461,53.5612 2.8074,14.7499 7.2951,26.922 13.4633,36.3715 6.1681,9.4565 14.1584,16.4731 23.8358,20.9118 9.8123,4.4386 21.4535,6.727 35.1935,6.727 11.216,0 20.8934,-1.1442 29.1671,-3.2877 8.132,-2.2952 16.4057,-6.4445 24.5376,-12.6063 9.6707,-7.2991 15.9805,-19.9055 19.348,-37.8052 3.2258,-18.0444 4.9062,-39.094 4.9062,-63.4381 0,-40.6724 -6.0264,-70.4616 -18.2277,-89.216 -12.1946,-18.7613 -31.5494,-28.2176 -58.1858,-28.2176 -10.9393,0 -20.7517,1.151 -29.3088,3.2946 -8.6921,2.2951 -16.8241,6.1617 -24.3959,11.7446 -4.6295,3.2946 -8.5504,8.4502 -11.4995,15.322 -3.0841,6.7339 -5.608,14.7498 -7.5718,23.772 -2.0988,9.0223 -3.5025,19.0509 -4.3461,29.934 -0.8368,10.8832 -1.262,21.9111 -1.262,32.9322 z m 117.0801,-318.0593 35.1936,34.80003 -104.8788,93.22737 -21.3118,-19.1886 z m 371.5736,462.2701 v -199.7709 c 0,-6.7339 -0.5669,-13.3163 -1.6871,-19.9054 -1.1203,-6.5892 -3.3608,-12.4616 -6.7283,-17.6172 -3.3675,-5.3003 -8.2737,-9.4495 -14.5836,-12.8889 -6.3098,-3.2946 -14.7185,-5.0108 -25.5161,-5.0108 -6.735,0 -14.1652,0.8616 -21.8787,2.5778 -7.8486,1.5784 -15.7038,3.722 -23.6941,6.2997 -7.8485,2.4331 -15.5621,5.4451 -22.9922,8.7396 -7.2951,3.4325 -14.0234,6.7271 -20.0499,10.0217 v 227.5544 h -55.5268 v -286.9811 h 46.5513 l 7.7136,33.7936 h 0.8368 c 6.3099,-3.5771 13.605,-7.7333 22.0137,-12.3168 8.2737,-4.5834 17.2492,-9.0222 26.9198,-13.0336 9.5357,-4.0045 19.4897,-7.4439 30.0107,-10.3111 10.3725,-2.7156 20.8934,-4.1493 31.5493,-4.1493 12.0529,0 23.134,1.7163 33.2297,5.3003 10.2375,3.4325 18.9296,8.7328 26.0763,15.894 7.2952,7.1613 13.0449,15.894 17.1075,26.3499 4.0694,10.4558 6.1682,22.9105 6.1682,37.0883 v 208.3658 z"
     style="fill:#ffffff;fill-rule:evenodd;stroke:#ffffff;stroke-width:0.218291;stroke-linecap:butt;stroke-linejoin:miter;stroke-dasharray:none"
     id="path294" />
  <path
     d="m 2001.0413,2244.8959 h -250.2308 v -478.2943 h 239.7651 l -4.5229,34.9213 -171.5538,2.3865 v 169.3197 l 162.0347,1.9107 -4.5304,30.6089 -157.5043,3.829 v 198.0103 l 191.0653,3.829 z m 301.2747,0 V 2022.492 c 0,-7.4969 -0.6311,-14.8249 -1.8783,-22.1606 -1.2472,-7.3358 -3.7415,-13.8734 -7.4906,-19.6131 -3.749,-5.9008 -9.211,-10.5201 -16.2357,-14.3492 -7.0248,-3.6678 -16.3861,-5.5785 -28.407,-5.5785 -7.4981,0 -15.77,0.9592 -24.3574,2.8699 -8.7377,1.7572 -17.483,4.1436 -26.3785,7.0134 -8.7377,2.7087 -17.3251,6.0619 -25.597,9.7298 -8.1217,3.8213 -15.6122,7.4891 -22.3214,11.157 v 253.3352 h -61.8177 v -319.4947 h 51.8253 l 8.5874,37.6224 h 0.9317 c 7.0247,-3.9825 15.1463,-8.6095 24.5076,-13.7123 9.2111,-5.1027 19.2035,-10.0443 29.9697,-14.5102 10.616,-4.4582 21.6978,-8.2873 33.4107,-11.4793 11.5476,-3.0234 23.2605,-4.6194 35.1237,-4.6194 13.4184,0 25.7548,1.9107 36.9944,5.9008 11.3974,3.8213 21.0742,9.7222 29.0306,17.6948 8.1216,7.9725 14.5228,17.6946 19.0456,29.3351 4.5304,11.6405 6.867,25.5061 6.867,41.2901 v 231.9727 z m 170.1488,-285.0644 -35.5895,-3.3456 v -18.1704 l 83.1999,-69.3593 h 12.329 l 1.4049,56.445 h 85.7018 l -4.0571,28.376 c -7.6483,0.9592 -16.2358,1.7495 -25.4468,2.5476 -9.3688,0.798 -18.1066,1.4348 -26.3785,2.0717 -9.8346,0.9593 -19.5114,1.5961 -29.3461,1.9184 v 208.0547 c 0,11.4794 2.0286,21.048 6.2434,28.6984 4.0571,7.6502 12.9526,11.4792 26.8443,11.4792 7.3402,0 16.078,-0.1611 26.5362,-0.4834 10.3079,-0.3146 19.827,-0.7903 28.4145,-1.4349 v 21.8459 c -4.5304,2.0719 -10.4583,4.466 -17.6408,6.8523 -7.1825,2.5553 -14.9886,4.9417 -23.5685,7.1747 -8.5875,2.3941 -17.1749,4.3046 -25.7624,5.9007 -8.4297,1.4349 -16.386,2.2329 -23.7263,2.2329 -6.7092,0 -13.5761,-0.798 -20.6009,-2.5475 -7.0247,-1.7572 -13.4259,-4.9492 -19.0456,-9.5686 -5.6198,-4.627 -10.3005,-11.3182 -14.0495,-19.9277 -3.5913,-8.4483 -5.462,-19.613 -5.462,-33.3253 z m 372.6114,16.7432 c -6.867,-0.6369 -14.8308,-1.4349 -23.5761,-2.233 -8.7377,-0.7979 -17.0096,-1.1126 -24.8157,-1.1126 -5.7775,0 -10.616,0.6369 -14.673,1.9107 -4.2149,1.1126 -8.1217,3.1921 -11.8632,5.7397 -3.749,2.7086 -7.4981,5.7396 -11.0893,9.4074 -3.5838,3.5067 -7.7986,7.6504 -12.637,12.2774 v 242.3316 h -61.8177 v -319.4947 h 51.8253 l 8.5874,49.8998 h 0.4658 c 3.2758,-3.9902 6.867,-8.4484 10.4583,-13.2366 3.5912,-4.7805 7.3327,-9.4075 11.0818,-13.7122 3.749,-4.4582 7.8061,-8.4483 12.0209,-12.2696 4.2148,-3.6679 8.7377,-6.6989 13.5837,-8.7707 8.1141,-3.6679 17.3251,-6.0619 27.6256,-7.0135 10.1501,-1.1203 21.54,-1.596 33.8765,-1.596 z m 198.8638,-57.8723 c 13.7414,0 27.1673,2.0718 40.2777,6.0542 13.1103,3.9902 25.1312,10.8425 35.905,20.25 10.7662,9.4075 20.2928,21.9994 28.2492,37.7835 8.1216,15.6229 14.2072,35.0748 18.1065,58.3557 v 3.8213 c -2.8099,3.3532 -6.3936,6.5377 -11.232,9.2541 -4.6882,2.8621 -10.9316,5.2562 -18.5799,7.4892 -7.4905,2.0717 -16.8594,4.1435 -28.0989,5.7396 -11.0818,1.7572 -24.5077,3.0309 -39.9621,3.9824 l -101.622,7.0211 v 20.0888 c 0,37.7835 6.5589,65.2003 19.6693,82.4193 13.1103,17.0655 32.9373,25.6673 59.4735,25.6673 11.0818,0 22.4792,-1.1126 34.1846,-3.3455 11.7129,-2.0719 22.9524,-4.7806 33.5684,-7.9726 10.7663,-3.1845 20.4431,-6.3766 29.1884,-9.561 8.5874,-3.3533 15.4544,-6.2232 20.2928,-8.7707 l 7.8061,18.1782 c -8.8955,5.8931 -18.7301,12.1162 -29.6617,18.6461 -11.0818,6.5378 -22.7872,12.4385 -35.4317,18.017 -12.6445,5.4251 -25.9126,9.8833 -39.8043,13.3977 -13.8992,3.6601 -28.0989,5.4173 -42.772,5.4173 -17.3327,0 -33.4107,-2.8698 -48.2415,-8.4483 -14.8233,-5.5785 -27.6256,-14.5102 -38.5571,-26.9487 -11.0818,-12.4308 -19.6618,-28.6906 -25.9127,-48.7794 -6.2433,-20.0888 -9.3613,-44.3212 -9.3613,-72.8659 0,-32.0439 3.5913,-59.3073 10.924,-81.6213 7.3403,-22.4829 17.483,-40.4999 30.1275,-54.051 12.8023,-13.7122 27.9412,-23.7566 45.2739,-29.972 17.4829,-6.2154 36.213,-9.2464 56.1903,-9.2464 z m -51.6675,46.0784 c -3.4334,2.5476 -6.5514,6.53 -9.519,11.955 -2.8099,5.4175 -5.3118,11.9551 -7.4981,19.6054 -2.1788,7.658 -3.8993,15.9452 -5.3042,24.877 -1.405,9.0852 -2.0286,18.1704 -2.0286,27.5779 l 131.1259,-5.5785 c -1.5627,-10.5201 -3.749,-21.2014 -6.7167,-32.0438 -2.8099,-10.6814 -6.867,-20.25 -11.8632,-28.6983 -4.9962,-8.2948 -11.3898,-15.1471 -19.0456,-20.4111 -7.6484,-5.2562 -17.0097,-7.9726 -27.9412,-7.9726 -7.3328,0 -14.673,0.798 -21.848,2.3941 -7.1826,1.4349 -13.5837,4.3047 -19.3613,8.2949 z m 422.7237,11.7939 c -6.8669,-0.6369 -14.8308,-1.4349 -23.576,-2.233 -8.7378,-0.7979 -17.0097,-1.1126 -24.8158,-1.1126 -5.7775,0 -10.6159,0.6369 -14.673,1.9107 -4.2148,1.1126 -8.1217,3.1921 -11.8632,5.7397 -3.749,2.7086 -7.498,5.7396 -11.0893,9.4074 -3.5837,3.5067 -7.7986,7.6504 -12.637,12.2774 v 242.3316 h -61.8176 v -319.4947 h 51.8252 l 8.5875,49.8998 h 0.4658 c 3.2757,-3.9902 6.8669,-8.4484 10.4582,-13.2366 3.5912,-4.7805 7.3328,-9.4075 11.0818,-13.7122 3.749,-4.4582 7.8061,-8.4483 12.0209,-12.2696 4.2149,-3.6679 8.7377,-6.6989 13.5837,-8.7707 8.1141,-3.6679 17.3252,-6.0619 27.6256,-7.0135 10.1502,-1.1203 21.54,-1.596 33.8765,-1.596 z m 236.4894,0 c -6.867,-0.6369 -14.8309,-1.4349 -23.5761,-2.233 -8.7377,-0.7979 -17.0096,-1.1126 -24.8157,-1.1126 -5.7776,0 -10.616,0.6369 -14.6731,1.9107 -4.2148,1.1126 -8.1216,3.1921 -11.8631,5.7397 -3.749,2.7086 -7.4981,5.7396 -11.0893,9.4074 -3.5838,3.5067 -7.7986,7.6504 -12.637,12.2774 v 242.3316 h -61.8177 v -319.4947 h 51.8253 l 8.5874,49.8998 h 0.4658 c 3.2757,-3.9902 6.867,-8.4484 10.4582,-13.2366 3.5913,-4.7805 7.3328,-9.4075 11.0818,-13.7122 3.7491,-4.4582 7.8061,-8.4483 12.021,-12.2696 4.2148,-3.6679 8.7377,-6.6989 13.5836,-8.7707 8.1142,-3.6679 17.3252,-6.0619 27.6256,-7.0135 10.1502,-1.1203 21.5401,-1.596 33.8765,-1.596 z m 76.0174,268.3212 v -319.4947 h 61.8176 v 319.4947 z m 30.2852,-484.0262 41.8329,42.5639 -41.8329,42.5717 -41.5248,-42.5717 z m 384.9404,450.5473 c 8.2794,0 19.0457,-1.9183 32.4715,-5.5785 v 20.0888 c -9.8346,5.2563 -20.4506,10.3591 -31.9982,15.3007 -11.5551,4.9415 -23.8841,7.4968 -36.6864,7.4968 -7.3328,0 -13.5836,-1.1203 -18.7301,-3.5067 -5.154,-2.3941 -9.3688,-5.4251 -12.8023,-9.4075 -3.2757,-3.829 -6.0856,-8.1337 -8.2719,-12.7531 -2.0285,-4.627 -3.9068,-9.4075 -5.462,-14.0345 -7.9639,5.2638 -15.4544,10.3666 -22.7947,15.4694 -7.3328,4.9417 -14.9811,9.3999 -23.1027,13.2288 -7.9564,3.9825 -16.7016,7.0135 -25.7549,9.4076 -9.0533,2.394 -19.3537,3.5066 -30.5933,3.5066 -25.6046,0 -45.7396,-7.1745 -60.4127,-21.6847 -14.8308,-14.5027 -22.1636,-36.5098 -22.1636,-65.6838 0,-15.6229 2.1788,-29.1741 6.5514,-40.9756 4.5304,-11.6327 11.5551,-21.5237 21.232,-29.3351 9.8346,-7.965 22.4791,-14.027 37.9336,-18.0094 15.4544,-4.1512 34.4925,-6.3841 56.9717,-7.021 l 56.1978,-1.9107 v -56.1228 c 0,-17.6947 -3.4334,-30.4478 -10.4582,-38.735 -7.0247,-8.1337 -18.7301,-12.2773 -35.1236,-12.2773 -11.8632,0 -26.2207,2.233 -43.2378,6.6912 -17.0172,4.4658 -33.7188,10.2055 -50.1123,17.2189 l -10.924,-29.6497 c 9.6768,-4.1437 19.9848,-8.1338 30.751,-12.4386 10.7738,-4.1435 21.8556,-7.8114 33.0952,-11.157 11.2395,-3.192 22.6369,-5.7396 34.1845,-7.8114 11.5551,-2.0719 22.945,-3.031 34.3423,-3.031 12.3365,0 23.5685,1.435 33.4032,4.1436 9.9924,2.8699 18.2643,7.6503 25.1388,14.188 6.8669,6.6988 12.0134,15.6229 15.4544,26.6265 3.5837,11.0036 5.3042,24.7158 5.3042,40.8144 v 152.4154 c 0,36.3486 8.5875,54.5267 25.5971,54.5267 z m -85.5365,-23.9178 c 0,-1.596 -0.3155,-10.5201 -0.9391,-26.941 -0.6236,-16.4209 -0.9392,-39.7018 -0.9392,-69.6739 -33.0951,0 -58.2264,2.2329 -75.0857,6.5377 -17.0096,4.4659 -27.6256,8.7706 -31.5324,13.0754 -3.5913,4.1436 -6.2434,9.8832 -7.9564,17.38 -1.7205,7.4892 -2.5018,16.2599 -2.5018,26.3043 0,17.8558 2.9676,31.5681 8.903,40.9756 5.9278,9.5609 15.9202,14.3414 29.8119,14.3414 14.8308,0 28.5647,-1.7495 41.0515,-5.0951 12.3365,-3.5067 25.4468,-9.0928 39.1882,-16.9044 z m 393.6856,57.3967 V 2022.492 c 0,-7.4969 -0.6311,-14.8249 -1.8782,-22.1606 -1.2472,-7.3358 -3.7416,-13.8734 -7.4906,-19.6131 -3.749,-5.9008 -9.211,-10.5201 -16.2358,-14.3492 -7.0247,-3.6678 -16.386,-5.5785 -28.4069,-5.5785 -7.4981,0 -15.77,0.9592 -24.3574,2.8699 -8.7378,1.7572 -17.483,4.1436 -26.3785,7.0134 -8.7377,2.7087 -17.3252,6.0619 -25.5971,9.7298 -8.1216,3.8213 -15.6122,7.4891 -22.3213,11.157 v 253.3352 h -61.8177 v -319.4947 h 51.8253 l 8.5874,37.6224 h 0.9316 c 7.0248,-3.9825 15.1464,-8.6095 24.5077,-13.7123 9.2111,-5.1027 19.2035,-10.0443 29.9697,-14.5102 10.616,-4.4582 21.6978,-8.2873 33.4107,-11.4793 11.5476,-3.0234 23.2605,-4.6194 35.1237,-4.6194 13.4183,0 25.7548,1.9107 36.9944,5.9008 11.3973,3.8213 21.0742,9.7222 29.0305,17.6948 8.1217,7.9725 14.5228,17.6946 19.0457,29.3351 4.5304,11.6405 6.867,25.5061 6.867,41.2901 v 231.9727 z m 412.1002,-33.4789 c 49.9771,0 48.6022,9.2158 0.4733,29.811 -11.5551,4.9415 -23.8841,7.4968 -36.6864,7.4968 -7.3327,0 -13.5836,-1.1203 -18.7301,-3.5067 -5.1539,-2.3941 -9.3688,-5.4251 -12.8023,-9.4075 -3.2757,-3.829 -6.0856,-8.1337 -8.2719,-12.7531 -2.0285,-4.627 -3.9068,-9.4075 -5.462,-14.0345 -7.9639,5.2638 -15.4544,10.3666 -22.7947,15.4694 -7.3328,4.9417 -14.9811,9.3999 -23.1027,13.2288 -7.9564,3.9825 -16.7016,7.0135 -25.7549,9.4076 -9.0532,2.394 -19.3537,3.5066 -30.5932,3.5066 -25.6046,0 -45.7397,-7.1745 -60.4128,-21.6847 -14.8308,-14.5027 -22.1636,-36.5098 -22.1636,-65.6838 0,-15.6229 2.1788,-29.1741 6.5515,-40.9756 4.5303,-11.6327 11.5551,-21.5237 21.2319,-29.3351 9.8347,-7.965 22.4792,-14.027 37.9336,-18.0094 15.4544,-4.1512 34.4926,-6.3841 56.9717,-7.021 l 56.1979,-1.9107 v -56.1228 c 0,-17.6947 -3.4335,-30.4478 -10.4582,-38.735 -7.0248,-8.1337 -18.7302,-12.2773 -35.1237,-12.2773 -11.8632,0 -26.2207,2.233 -43.2378,6.6912 -17.0171,4.4658 -33.7187,10.2055 -50.1123,17.2189 l -10.924,-29.6497 c 9.6769,-4.1437 19.9848,-8.1338 30.7511,-12.4386 10.7737,-4.1435 21.8555,-7.8114 33.0951,-11.157 11.2396,-3.192 22.6369,-5.7396 34.1845,-7.8114 11.5551,-2.0719 22.945,-3.031 34.3423,-3.031 12.3365,0 23.5686,1.435 33.4032,4.1436 9.9924,2.8699 18.2643,7.6503 25.1388,14.188 6.8669,6.6988 12.0134,15.6229 15.4544,26.6265 3.5837,11.0036 5.3042,24.7158 5.3042,40.8144 v 152.4154 c 0,36.3486 8.5875,54.5267 25.5971,54.5267 z m -85.5364,-23.9178 c 0,-1.596 -0.3156,-10.5201 -0.9392,-26.941 -0.6236,-16.4209 -0.9391,-39.7018 -0.9391,-69.6739 -33.0952,0 -58.2264,2.2329 -75.0858,6.5377 -17.0096,4.4659 -27.6256,8.7706 -31.5324,13.0754 -3.5913,4.1436 -6.2434,9.8832 -7.9564,17.38 -1.7205,7.4892 -2.5018,16.2599 -2.5018,26.3043 0,17.8558 2.9677,31.5681 8.903,40.9756 5.9278,9.5609 15.9202,14.3414 29.8119,14.3414 14.8308,0 28.5648,-1.7495 41.0515,-5.0951 12.3365,-3.5067 25.4468,-9.0928 39.1883,-16.9044 z"
     style="fill:#ffffff;fill-rule:evenodd;stroke:#ffffff;stroke-width:0.218291;stroke-linecap:butt;stroke-linejoin:miter;stroke-dasharray:none"
     id="path296" />
  <g
     id="Layer1008"
     transform="matrix(1,0,0,1.0213286,1748.683,-2615.9353)">
    <path
       d="m 784.2868,5235.3918 c -0.283,-4.0571 -0.4178,-8.1209 -0.4178,-12.3194 -0.283,-3.2214 -0.4246,-6.7191 -0.4246,-10.3583 0,-3.7807 0,-6.7257 0,-8.8216 v -147.1653 l 55.0328,-14.0042 v 473.8375 h -36.547 l -15.2644,-26.6066 h -1.1187 c -5.8834,4.2053 -11.9016,8.1208 -18.0612,11.7667 -6.3012,3.6392 -12.8855,6.9954 -19.6045,10.082 -6.7191,2.9383 -13.8627,5.3173 -21.5656,7.1369 -7.5615,1.8196 -15.6823,2.662 -24.2209,2.662 -15.2644,0 -30.1043,-2.5205 -44.25,-7.42 -14.2805,-4.8994 -26.8829,-12.7439 -37.8072,-23.6682 -10.9176,-10.9177 -19.7393,-25.1981 -26.3236,-42.8415 -6.5775,-17.6434 -9.7988,-38.926 -9.7988,-63.9961 0,-24.0793 3.2213,-45.645 9.6573,-64.6901 6.4428,-19.18 15.689,-35.2801 27.8668,-48.4419 12.1846,-13.0269 27.0245,-23.1089 44.3915,-29.9694 17.3604,-7.0021 36.9648,-10.4998 58.9483,-10.4998 8.6802,0 18.3375,0.5593 28.7025,1.6781 10.365,1.1187 20.5817,2.2441 30.8051,3.6392 z M 642.722,5380.5959 c 0,18.6273 1.8196,34.4511 5.6003,47.6129 3.646,13.0202 8.9633,23.8031 15.6823,32.3417 6.8606,8.4039 15.1229,14.5635 24.6454,18.3443 9.6641,3.7807 20.1639,5.7418 31.6476,5.7418 11.4837,0 22.6843,-1.1187 33.6019,-3.5044 10.9244,-2.2374 20.5885,-5.1758 29.1271,-8.8217 v -207.0908 c -8.6802,-1.4017 -17.2255,-2.3789 -25.2048,-3.0798 -8.1208,-0.7009 -16.801,-0.9839 -26.0405,-0.9839 -13.1685,0 -25.2048,1.1254 -36.4122,3.2213 -11.0591,2.2442 -19.5978,5.7419 -25.6227,10.6413 -2.9383,2.8036 -6.0181,6.8606 -9.2395,12.3261 -3.0798,5.4588 -6.0181,12.4609 -8.8217,21.1411 -2.662,8.5454 -4.8994,18.9036 -6.4427,30.8052 -1.6781,12.043 -2.5205,25.7642 -2.5205,41.3049 z"
       style="fill:#ffffff;fill-rule:evenodd;stroke:#ffffff;stroke-width:0.216;stroke-linecap:butt;stroke-linejoin:miter;stroke-dasharray:none"
       id="path298" />
    <path
       d="m 1048.5061,5230.0745 c 12.3261,0 24.3692,1.8196 36.1292,5.3173 11.76,3.5044 22.5428,9.5225 32.2069,17.7849 9.6573,8.2623 18.2027,19.3214 25.3396,33.1841 7.2851,13.7211 12.7439,30.8052 16.2416,51.2521 v 3.3561 c -2.5205,2.9451 -5.7351,5.7419 -10.0752,8.1276 -4.2053,2.5137 -9.8056,4.6164 -16.6662,6.5775 -6.719,1.8196 -15.1229,3.6392 -25.2048,5.041 -9.9404,1.5433 -21.9835,2.662 -35.8461,3.4976 l -91.1552,6.1665 v 17.6434 c 0,33.1841 5.8834,57.2635 17.6434,72.3864 11.76,14.9881 29.5449,22.5428 53.3479,22.5428 9.9404,0 20.1639,-0.9772 30.6636,-2.9383 10.5066,-1.8196 20.5885,-4.1986 30.111,-7.0021 9.6574,-2.7968 18.3376,-5.6003 26.1821,-8.3971 7.7029,-2.9451 13.8626,-5.4656 18.2027,-7.703 l 7.0021,15.9653 c -7.9793,5.1758 -16.801,10.6413 -26.6066,16.3764 -9.9404,5.7419 -20.4402,10.9244 -31.7823,15.8238 -11.3422,4.7647 -23.2437,8.6802 -35.7046,11.7667 -12.4676,3.2147 -25.2048,4.758 -38.3666,4.758 -15.5475,0 -29.9695,-2.5205 -43.2728,-7.42 -13.2965,-4.8994 -24.7802,-12.7439 -34.5858,-23.6682 -9.9404,-10.9177 -17.6367,-25.1981 -23.2437,-42.8415 -5.6003,-17.6434 -8.3971,-38.926 -8.3971,-63.9961 0,-28.1431 3.2213,-52.0877 9.7988,-71.6855 6.5843,-19.746 15.6823,-35.5698 27.0245,-47.4714 11.4836,-12.043 25.0633,-20.8647 40.6107,-26.3235 15.6823,-5.4588 32.4832,-8.1208 50.4029,-8.1208 z m -46.3459,40.4692 c -3.0798,2.2375 -5.8766,5.7352 -8.5386,10.4998 -2.5205,4.7579 -4.7646,10.4998 -6.7258,17.2188 -1.9544,6.7258 -3.4976,14.0042 -4.7579,21.8487 -1.2602,7.9793 -1.8196,15.9586 -1.8196,24.2209 l 117.6203,-4.8994 c -1.4018,-9.2395 -3.3629,-18.6206 -6.0249,-28.1432 -2.5205,-9.381 -6.1597,-17.7849 -10.6413,-25.2048 -4.4816,-7.2852 -10.2167,-13.3033 -17.084,-17.9264 -6.8606,-4.6164 -15.2577,-7.0021 -25.0633,-7.0021 -6.5775,0 -13.1618,0.7008 -19.5978,2.1026 -6.4427,1.2602 -12.1846,3.7807 -17.3671,7.2851 z m 443.8744,56.9872 11.9015,-2.1026 c 14.7051,-2.379 28.7025,-5.6003 42.0058,-9.6574 13.3033,-3.9222 24.787,-9.9471 34.7274,-17.9264 9.7989,-7.8378 17.6434,-18.4858 23.5268,-31.9239 5.8766,-13.3033 8.8216,-30.6636 8.8216,-51.9462 0,-15.9653 -2.5204,-29.6865 -7.4266,-41.1702 -4.8995,-11.6185 -11.6185,-21.0062 -20.4402,-28.4262 -8.6801,-7.4199 -19.3214,-12.8787 -31.9238,-16.5179 -12.4609,-3.5044 -26.3236,-5.324 -41.3117,-5.324 -7.8377,0 -14.6983,0.1415 -20.4401,0.5593 -5.7419,0.4179 -12.8855,1.1188 -21.2826,1.9612 v 391.5039 H 1367.064 V 5098.45 c 17.2188,-1.3951 36.2639,-2.379 56.9872,-3.2147 20.8647,-0.8424 41.1701,-1.2602 61.1924,-1.2602 24.2209,0 45.5035,2.7968 63.5714,8.2556 18.0612,5.4655 32.9011,13.1618 44.6611,23.1089 11.7667,10.082 20.5884,22.2598 26.3302,36.5403 5.7351,14.422 8.5387,30.5288 8.5387,48.5901 0,18.9036 -3.3629,36.547 -10.2235,53.0717 -6.8605,16.3831 -17.5018,30.6636 -31.9238,42.7067 -14.2805,11.9015 -32.4833,21.4241 -54.6082,28.4194 -21.9835,7.0021 -48.1655,10.5065 -78.5528,10.5065 h -3.7807 z m 454.6505,159.6262 c 7.4266,0 17.084,-1.6848 29.127,-4.8994 v 17.6433 c -8.8217,4.6164 -18.3442,9.098 -28.7025,13.4381 -10.365,4.3401 -21.4241,6.5843 -32.9078,6.5843 -6.5775,0 -12.1845,-0.9839 -16.8009,-3.0799 -4.6232,-2.1026 -8.4039,-4.7646 -11.4837,-8.2623 -2.9383,-3.3629 -5.4588,-7.1436 -7.4199,-11.2006 -1.8196,-4.0638 -3.5045,-8.2624 -4.8995,-12.3261 -7.1436,4.6231 -13.8626,9.1047 -20.4469,13.5863 -6.5775,4.3401 -13.4381,8.2556 -20.7232,11.6185 -7.1369,3.4977 -14.9814,6.1597 -23.1022,8.2623 -8.1208,2.1027 -17.3603,3.0799 -27.4422,3.0799 -22.9674,0 -41.0286,-6.3012 -54.1904,-19.0452 -13.3033,-12.7372 -19.8808,-32.0654 -19.8808,-57.6881 0,-13.7211 1.9544,-25.6226 5.8766,-35.9876 4.0638,-10.2167 10.365,-18.9037 19.0452,-25.7642 8.8217,-6.9954 20.1638,-12.3194 34.0265,-15.8171 13.8626,-3.6459 30.9399,-5.607 51.1038,-6.1664 l 50.4096,-1.6781 v -49.2909 c 0,-15.5408 -3.0798,-26.7414 -9.381,-34.0198 -6.3012,-7.1436 -16.801,-10.7828 -31.5061,-10.7828 -10.6412,0 -23.52,1.9611 -38.7844,5.8766 -15.2644,3.9222 -30.2458,8.9632 -44.9508,15.1229 l -9.7989,-26.0405 c 8.6802,-3.6392 17.9264,-7.1436 27.5838,-10.9244 9.6641,-3.6392 19.6045,-6.8605 29.6864,-9.7988 10.0819,-2.8036 20.3054,-5.041 30.6636,-6.8606 10.365,-1.8196 20.5817,-2.662 30.8052,-2.662 11.0658,0 21.141,1.2602 29.9627,3.6392 8.9632,2.5205 16.3831,6.719 22.5495,12.4609 6.1597,5.8834 10.7761,13.7211 13.8627,23.3852 3.2146,9.6641 4.7579,21.7072 4.7579,35.8462 v 133.8619 c 0,31.9239 7.703,47.8892 22.9607,47.8892 z m -76.7265,-21.0063 c 0,-1.4017 -0.283,-9.2395 -0.8424,-23.6615 -0.5593,-14.422 -0.8424,-34.869 -0.8424,-61.1925 -29.6864,0 -52.2292,1.9611 -67.3521,5.7418 -15.2577,3.9223 -24.7803,7.703 -28.2847,11.4837 -3.2213,3.6392 -5.6003,8.6802 -7.1368,15.2645 -1.5433,6.5775 -2.2442,14.2805 -2.2442,23.1021 0,15.6823 2.662,27.7254 7.986,35.9877 5.3173,8.3971 14.2805,12.5957 26.7414,12.5957 13.3033,0 25.6226,-1.5366 36.8233,-4.4749 11.0658,-3.0798 22.8258,-7.986 35.1519,-14.8466 z m 160.7448,-199.9539 -31.9239,-2.9383 V 5247.3 l 74.6305,-60.9162 h 11.0591 l 1.2603,49.5741 h 76.8747 l -3.6392,24.9217 c -6.8606,0.8425 -14.5636,1.5366 -22.8259,2.2375 -8.4038,0.7009 -16.2416,1.2602 -23.6615,1.8196 -8.8217,0.8424 -17.5019,1.4017 -26.3235,1.6848 v 182.7283 c 0,10.082 1.8196,18.4858 5.6003,25.2049 3.6392,6.719 11.6185,10.0819 24.0793,10.0819 6.5843,0 14.4221,-0.1415 23.8031,-0.4246 9.2463,-0.2763 17.7849,-0.6941 25.4879,-1.2602 v 19.1867 c -4.0638,1.8196 -9.3811,3.9222 -15.8238,6.0181 -6.4427,2.2442 -13.4448,4.3401 -21.1411,6.3012 -7.7029,2.1027 -15.4059,3.7808 -23.1089,5.1825 -7.5614,1.2603 -14.6983,1.9612 -21.2825,1.9612 -6.0182,0 -12.1779,-0.7009 -18.4791,-2.2375 -6.3012,-1.5433 -12.043,-4.3468 -17.084,-8.4038 -5.041,-4.0638 -9.2395,-9.9404 -12.6024,-17.5019 -3.2214,-7.4199 -4.8994,-17.2255 -4.8994,-29.2686 z m 190.2896,250.3636 v -280.6026 h 55.4506 v 280.6026 z m 64.8316,-451.9955 35.1453,34.0265 -104.7416,91.1552 -21.2825,-18.7621 z m 282.9881,451.9955 v -195.3308 c 0,-6.5842 -0.5661,-13.0202 -1.6848,-19.463 -1.1187,-6.4427 -3.3561,-12.1845 -6.719,-17.2255 -3.3629,-5.1825 -8.2623,-9.2395 -14.5635,-12.6024 -6.3012,-3.2214 -14.6984,-4.8995 -25.4812,-4.8995 -6.7257,0 -14.1457,0.8424 -21.8486,2.5205 -7.8378,1.5433 -15.6823,3.6392 -23.6616,6.1597 -7.8377,2.379 -15.5407,5.324 -22.9606,8.5454 -7.2851,3.3561 -14.0042,6.5775 -20.0223,9.7989 v 222.4967 h -55.4506 v -280.6026 h 46.4873 l 7.703,33.0426 h 0.8357 c 6.3012,-3.4977 13.5863,-7.5615 21.9834,-12.0431 8.2624,-4.4816 17.2256,-8.8217 26.8829,-12.7439 9.5226,-3.9156 19.463,-7.2784 29.9695,-10.082 10.3582,-2.6553 20.8647,-4.057 31.506,-4.057 12.0363,0 23.1022,1.6781 33.1841,5.1825 10.2235,3.3561 18.9036,8.5386 26.0405,15.5407 7.2851,7.0021 13.027,15.5407 17.084,25.7642 4.0638,10.2235 6.1597,22.4013 6.1597,36.264 v 203.7346 z"
       style="fill:#ffffff;fill-rule:evenodd;stroke:#ffffff;stroke-width:0.216;stroke-linecap:butt;stroke-linejoin:miter;stroke-dasharray:none"
       id="path300" />
  </g>
</svg>
