<?xml version="1.0" encoding="UTF-8" standalone="no"?>
<svg
   version="1.1"
   width="237mm"
   height="170mm"
   id="svg303"
   viewBox="0 0 895.74838 642.51983"
   sodipodi:docname="Logo.svg"
   inkscape:export-filename="C:\Users\diego.justet\Desktop\Patin\FEP\FEP_fondo.png"
   inkscape:export-xdpi="96"
   inkscape:export-ydpi="96"
   inkscape:version="1.1 (c68e22c387, 2021-05-23)"
   xmlns:inkscape="http://www.inkscape.org/namespaces/inkscape"
   xmlns:sodipodi="http://sodipodi.sourceforge.net/DTD/sodipodi-0.dtd"
   xmlns:xlink="http://www.w3.org/1999/xlink"
   xmlns="http://www.w3.org/2000/svg"
   xmlns:svg="http://www.w3.org/2000/svg">
  <sodipodi:namedview
     id="namedview305"
     pagecolor="#ffffff"
     bordercolor="#666666"
     borderopacity="1.0"
     inkscape:pageshadow="2"
     inkscape:pageopacity="0.0"
     inkscape:pagecheckerboard="0"
     showgrid="false"
     units="mm"
     inkscape:zoom="0.41799165"
     inkscape:cx="715.32529"
     inkscape:cy="486.85183"
     inkscape:window-width="1920"
     inkscape:window-height="1001"
     inkscape:window-x="-9"
     inkscape:window-y="-9"
     inkscape:window-maximized="1"
     inkscape:current-layer="svg303"
     inkscape:document-units="mm"
     showguides="false"
     width="60mm" />
  <defs
     id="defs94">
    <linearGradient
       id="grad1">
      <stop
         offset="0%"
         stop-color="#000000"
         stop-opacity="1.0000"
         id="stop88" />
      <stop
         offset="100%"
         stop-color="#ffffff"
         stop-opacity="1.0000"
         id="stop90" />
    </linearGradient>
    <linearGradient
       xlink:href="#grad1"
       id="grad2"
       x1="-1508.4307"
       y1="2975.5083"
       x2="-1508.4307"
       y2="7885.2588"
       gradientTransform="matrix(1.1547005,0,0,0.88449652,1748.683,-2615.9354)"
       gradientUnits="userSpaceOnUse" />
  </defs>
  <path
     d="M 6.8973622,15.891312 H 5676.1886 V 4358.5482 H 6.8973622 Z m 0.108,4342.546588 H 5676.0806 V 16.001615 H 7.0053622 Z"
     style="fill:#102a83;fill-rule:evenodd;stroke-width:1.01061"
     id="path98" />
  <path
     d="m 340.42467,545.03761 a 264.5295,270.17143 0 0 0 370.461,-53.1718 264.5295,270.17143 0 1 0 -370.461,53.1718 z"
     style="fill:#3a3a3a;fill-rule:evenodd;stroke:#3a3a3a;stroke-width:0.505304;stroke-linecap:butt;stroke-linejoin:miter;stroke-dasharray:none"
     id="path100" />
  <path
     d="m 350.54477,519.90031 a 264.5295,270.17143 0 0 0 370.4611,-53.1717 264.5295,270.17143 0 1 0 -370.4611,53.1717 z"
     style="fill:#ffffff;fill-rule:evenodd;stroke:#ffffff;stroke-width:0.505304;stroke-linecap:butt;stroke-linejoin:miter;stroke-dasharray:none"
     id="path102" />
  <path
     d="M 508.04997,33.381509 A 264.5295,270.17143 0 0 1 772.57947,303.55291 264.5295,270.17143 0 1 1 508.04997,33.381509 Z"
     style="fill:#3a3a3a;fill-rule:evenodd;stroke:#3a3a3a;stroke-width:0.505304;stroke-linecap:butt;stroke-linejoin:miter;stroke-dasharray:none"
     id="path104" />
  <path
     d="M 505.44757,56.867009 A 264.5295,270.17143 0 0 1 769.97707,327.03851 264.5295,270.17143 0 1 1 505.44757,56.867009 Z"
     style="fill:#ffffff;fill-rule:evenodd;stroke:#ffffff;stroke-width:0.505304;stroke-linecap:butt;stroke-linejoin:miter;stroke-dasharray:none"
     id="path106" />
  <g
     id="Layer1000"
     transform="matrix(1,0,0,1.0213286,-2661.3214,-6024.4544)">
    <path
       d="m 2967.776,6194.6207 -159.3384,-33.3655 152.0737,101.8836 z"
       style="fill:#59c9a2;fill-opacity:0;fill-rule:evenodd"
       id="path108" />
  </g>
  <g
     id="Layer1001"
     transform="matrix(1,0,0,1.0213286,-2661.3214,-6024.4544)">
    <path
       d="m 2695.7885,6131.4917 499.6023,104.6168 -476.8238,-319.454 z"
       style="fill:#f3202a;fill-rule:evenodd"
       id="path111" />
  </g>
  <path
     d="m 628.26957,342.73391 138.2979,-29.5808 -91.1852,-108.1242 z"
     style="fill:#f3202a;fill-opacity:0;fill-rule:evenodd;stroke-width:1.01061"
     id="path114" />
  <path
     d="m 877.23817,293.20691 -492.5243,101.386 357.0502,138.1567 z"
     style="fill:#13b17a;fill-rule:evenodd;stroke-width:1.01061"
     id="path116" />
  <path
     d="m 287.17147,210.14151 h 85.3546 v 28.5205 h -57.1732 v 51.284 h 57.1732 v 28.5204 h -57.1732 v 79.805 h -28.1814 z m 115.0724,159.3481 h 24.0818 v 28.5204 h -24.0818 z m 54.3121,-159.3481 h 85.3547 v 28.5205 h -57.1733 v 51.284 h 57.1733 v 28.5204 h -57.1733 v 51.2845 h 57.1733 v 28.5205 h -85.3547 z m 115.0725,159.3481 h 24.0818 v 28.5204 h -24.0818 z m 82.237,-11.5131 v 40.2949 h -27.9249 v -189.4382 h 30.1027 c 20.111,0 37.3182,7.2826 51.5372,21.8482 14.2184,14.5652 21.3489,32.14 21.3489,52.6358 0,20.6275 -7.1305,38.2458 -21.3489,52.811 -14.2616,14.5657 -31.4262,21.8483 -51.5798,21.8483 z m 0,-28.2591 h 2.1352 c 12.5106,0 23.185,-4.5348 32.0239,-13.5622 8.8383,-9.0268 13.2365,-19.973 13.2365,-32.7503 0,-12.7775 -4.3982,-23.7237 -13.2365,-32.7505 -8.8389,-9.0274 -19.5133,-13.5628 -32.0239,-13.5628 h -2.1352 z"
     style="fill:#1b1918;fill-rule:evenodd;stroke-width:1.01061"
     id="path118" />
  <g
     id="Layer1002"
     transform="matrix(1,0,0,1.0213286,-2661.3214,-6024.4544)">
    <path
       d="m 3228.2922,6361.4687 a 26.3562,26.3562 0 0 1 4.1091,37.0461 26.3562,26.3562 0 1 1 -4.1091,-37.0461 z"
       style="fill:#13b17a;fill-rule:evenodd;stroke:#13b17a;stroke-width:0.5;stroke-linecap:butt;stroke-linejoin:miter;stroke-dasharray:none"
       id="path120" />
    <path
       d="m 3230.8844,6366.2879 a 23.5651,23.5651 0 0 1 3.6739,33.123 23.5651,23.5651 0 1 1 -3.6739,-33.123 z"
       style="fill:#ffffff;fill-rule:evenodd;stroke:#ffffff;stroke-width:0.5;stroke-linecap:butt;stroke-linejoin:miter;stroke-dasharray:none"
       id="path122" />
    <path
       d="m 3216.1082,6376.6936 a 6.8568,6.8568 0 0 1 1.069,9.6378 6.8568,6.8568 0 1 1 -1.069,-9.6378 z"
       style="fill:#f76269;fill-rule:evenodd;stroke:#f3202a;stroke-width:0.5;stroke-linecap:butt;stroke-linejoin:miter;stroke-dasharray:none"
       id="path124" />
    <path
       d="m 3215.0889,6376.2898 a 6.245,6.245 0 0 1 0.9736,8.7779 6.245,6.245 0 1 1 -0.9736,-8.7779 z"
       style="fill:#ffffff;fill-rule:evenodd;stroke:#ffffff;stroke-width:0.5;stroke-linecap:butt;stroke-linejoin:miter;stroke-dasharray:none"
       id="path126" />
  </g>
  <g
     id="Layer1003"
     transform="matrix(1,0,0,1.0213286,-2661.3214,-6024.4544)">
    <path
       d="m 3297.7173,6391.4664 a 26.3562,26.3562 0 0 1 4.109,37.0461 26.3562,26.3562 0 1 1 -4.109,-37.0461 z"
       style="fill:#13b17a;fill-rule:evenodd;stroke:#13b17a;stroke-width:0.5;stroke-linecap:butt;stroke-linejoin:miter;stroke-dasharray:none"
       id="path129" />
    <path
       d="m 3300.3094,6396.2856 a 23.5651,23.5651 0 0 1 3.6739,33.1229 23.5651,23.5651 0 1 1 -3.6739,-33.1229 z"
       style="fill:#ffffff;fill-rule:evenodd;stroke:#ffffff;stroke-width:0.5;stroke-linecap:butt;stroke-linejoin:miter;stroke-dasharray:none"
       id="path131" />
    <path
       d="m 3285.5333,6406.6912 a 6.8568,6.8568 0 0 1 1.069,9.6379 6.8568,6.8568 0 1 1 -1.069,-9.6379 z"
       style="fill:#f76269;fill-rule:evenodd;stroke:#f3202a;stroke-width:0.5;stroke-linecap:butt;stroke-linejoin:miter;stroke-dasharray:none"
       id="path133" />
    <path
       d="m 3284.5139,6406.2874 a 6.245,6.245 0 0 1 0.9736,8.7779 6.245,6.245 0 1 1 -0.9736,-8.7779 z"
       style="fill:#ffffff;fill-rule:evenodd;stroke:#ffffff;stroke-width:0.5;stroke-linecap:butt;stroke-linejoin:miter;stroke-dasharray:none"
       id="path135" />
  </g>
  <g
     id="Layer1004"
     transform="matrix(1,0,0,1.0213286,-2661.3214,-6024.4544)">
    <path
       d="m 3367.3629,6420.8285 a 26.3562,26.3562 0 0 1 4.1091,37.0461 26.3562,26.3562 0 1 1 -4.1091,-37.0461 z"
       style="fill:#13b17a;fill-rule:evenodd;stroke:#13b17a;stroke-width:0.5;stroke-linecap:butt;stroke-linejoin:miter;stroke-dasharray:none"
       id="path138" />
    <path
       d="m 3369.9551,6425.6477 a 23.5651,23.5651 0 0 1 3.6739,33.1229 23.5651,23.5651 0 1 1 -3.6739,-33.1229 z"
       style="fill:#ffffff;fill-rule:evenodd;stroke:#ffffff;stroke-width:0.5;stroke-linecap:butt;stroke-linejoin:miter;stroke-dasharray:none"
       id="path140" />
    <path
       d="m 3355.1789,6436.0533 a 6.8568,6.8568 0 0 1 1.069,9.6378 6.8568,6.8568 0 1 1 -1.069,-9.6378 z"
       style="fill:#f76269;fill-rule:evenodd;stroke:#f3202a;stroke-width:0.5;stroke-linecap:butt;stroke-linejoin:miter;stroke-dasharray:none"
       id="path142" />
    <path
       d="m 3354.1596,6435.6495 a 6.245,6.245 0 0 1 0.9736,8.7779 6.245,6.245 0 1 1 -0.9736,-8.7779 z"
       style="fill:#ffffff;fill-rule:evenodd;stroke:#ffffff;stroke-width:0.5;stroke-linecap:butt;stroke-linejoin:miter;stroke-dasharray:none"
       id="path144" />
  </g>
  <g
     id="Layer1005"
     transform="matrix(1,0,0,1.0213286,-2661.3214,-6024.4544)">
    <path
       d="m 2718.9502,6145.064 a 21.1565,21.1565 0 0 1 9.218,28.4644 21.1565,21.1565 0 1 1 -9.218,-28.4644 z"
       style="fill:#13b17a;fill-rule:evenodd;stroke:#13b17a;stroke-width:0.5;stroke-linecap:butt;stroke-linejoin:miter;stroke-dasharray:none"
       id="path147" />
    <path
       d="m 2721.7672,6148.4343 a 18.916,18.916 0 0 1 8.2418,25.45 18.916,18.916 0 1 1 -8.2418,-25.45 z"
       style="fill:#ffffff;fill-rule:evenodd;stroke:#ffffff;stroke-width:0.5;stroke-linecap:butt;stroke-linejoin:miter;stroke-dasharray:none"
       id="path149" />
    <path
       d="m 2711.8307,6159.004 a 5.504,5.504 0 0 1 2.3982,7.4053 5.504,5.504 0 1 1 -2.3982,-7.4053 z"
       style="fill:#f76269;fill-rule:evenodd;stroke:#f3202a;stroke-width:0.5;stroke-linecap:butt;stroke-linejoin:miter;stroke-dasharray:none"
       id="path151" />
    <path
       d="m 2710.964,6158.8513 a 5.0129,5.0129 0 0 1 2.1841,6.7445 5.0129,5.0129 0 1 1 -2.1841,-6.7445 z"
       style="fill:#ffffff;fill-rule:evenodd;stroke:#ffffff;stroke-width:0.5;stroke-linecap:butt;stroke-linejoin:miter;stroke-dasharray:none"
       id="path153" />
  </g>
  <g
     id="Layer1006"
     transform="matrix(1,0,0,1.0213286,-2661.3214,-6024.4544)">
    <path
       d="m 2778.3855,6157.4305 a 21.1565,21.1565 0 0 1 9.2179,28.4644 21.1565,21.1565 0 1 1 -9.2179,-28.4644 z"
       style="fill:#13b17a;fill-rule:evenodd;stroke:#13b17a;stroke-width:0.5;stroke-linecap:butt;stroke-linejoin:miter;stroke-dasharray:none"
       id="path156" />
    <path
       d="m 2781.2025,6160.8008 a 18.916,18.916 0 0 1 8.2417,25.4501 18.916,18.916 0 1 1 -8.2417,-25.4501 z"
       style="fill:#ffffff;fill-rule:evenodd;stroke:#ffffff;stroke-width:0.5;stroke-linecap:butt;stroke-linejoin:miter;stroke-dasharray:none"
       id="path158" />
    <path
       d="m 2771.266,6171.3705 a 5.504,5.504 0 0 1 2.3981,7.4053 5.504,5.504 0 1 1 -2.3981,-7.4053 z"
       style="fill:#f76269;fill-rule:evenodd;stroke:#f3202a;stroke-width:0.5;stroke-linecap:butt;stroke-linejoin:miter;stroke-dasharray:none"
       id="path160" />
    <path
       d="m 2770.3992,6171.2178 a 5.0129,5.0129 0 0 1 2.1842,6.7445 5.0129,5.0129 0 1 1 -2.1842,-6.7445 z"
       style="fill:#ffffff;fill-rule:evenodd;stroke:#ffffff;stroke-width:0.5;stroke-linecap:butt;stroke-linejoin:miter;stroke-dasharray:none"
       id="path162" />
  </g>
  <g
     id="Layer1007"
     transform="matrix(1,0,0,1.0213286,-2661.3214,-6024.4544)">
    <path
       d="m 2837.8914,6169.2617 a 21.1565,21.1565 0 0 1 9.218,28.4644 21.1565,21.1565 0 1 1 -9.218,-28.4644 z"
       style="fill:#13b17a;fill-rule:evenodd;stroke:#13b17a;stroke-width:0.5;stroke-linecap:butt;stroke-linejoin:miter;stroke-dasharray:none"
       id="path165" />
    <path
       d="m 2840.7084,6172.632 a 18.916,18.916 0 0 1 8.2418,25.45 18.916,18.916 0 1 1 -8.2418,-25.45 z"
       style="fill:#ffffff;fill-rule:evenodd;stroke:#ffffff;stroke-width:0.5;stroke-linecap:butt;stroke-linejoin:miter;stroke-dasharray:none"
       id="path167" />
    <path
       d="m 2830.7719,6183.2017 a 5.504,5.504 0 0 1 2.3982,7.4052 5.504,5.504 0 1 1 -2.3982,-7.4052 z"
       style="fill:#f76269;fill-rule:evenodd;stroke:#f3202a;stroke-width:0.5;stroke-linecap:butt;stroke-linejoin:miter;stroke-dasharray:none"
       id="path169" />
    <path
       d="m 2829.9052,6183.0489 a 5.0129,5.0129 0 0 1 2.1841,6.7445 5.0129,5.0129 0 1 1 -2.1841,-6.7445 z"
       style="fill:#ffffff;fill-rule:evenodd;stroke:#ffffff;stroke-width:0.5;stroke-linecap:butt;stroke-linejoin:miter;stroke-dasharray:none"
       id="path171" />
  </g>
  <defs
     id="defs180">
    <linearGradient
       id="grad3">
      <stop
         offset="0%"
         stop-color="#009035"
         stop-opacity="1.0000"
         id="stop174" />
      <stop
         offset="100%"
         stop-color="#e30016"
         stop-opacity="1.0000"
         id="stop176" />
    </linearGradient>
    <linearGradient
       xlink:href="#grad3"
       id="grad4"
       x1="-3172.7434"
       y1="1414.6584"
       x2="-3172.7434"
       y2="2656.1152"
       gradientTransform="matrix(0.54898413,0,0,1.8603973,1748.683,-2615.9354)"
       gradientUnits="userSpaceOnUse" />
  </defs>
  <defs
     id="defs190">
    <linearGradient
       id="grad5">
      <stop
         offset="0%"
         stop-color="#009035"
         stop-opacity="1.0000"
         id="stop184" />
      <stop
         offset="100%"
         stop-color="#009035"
         stop-opacity="1.0000"
         id="stop186" />
    </linearGradient>
    <linearGradient
       xlink:href="#grad5"
       id="grad6"
       x1="-2682.1899"
       y1="1673.3893"
       x2="-2682.1899"
       y2="3499.1165"
       gradientTransform="matrix(0.64938938,0,0,1.5727523,1748.683,-2615.9354)"
       gradientUnits="userSpaceOnUse" />
  </defs>
  <defs
     id="defs200">
    <linearGradient
       id="grad7">
      <stop
         offset="0%"
         stop-color="#e30016"
         stop-opacity="1.0000"
         id="stop194" />
      <stop
         offset="100%"
         stop-color="#ffffff"
         stop-opacity="1.0000"
         id="stop196" />
    </linearGradient>
    <linearGradient
       xlink:href="#grad7"
       id="grad8"
       x1="-1942.281"
       y1="2581.998"
       x2="-1942.281"
       y2="3398.4641"
       gradientTransform="matrix(0.89677326,0,0,1.1388928,1748.683,-2615.9354)"
       gradientUnits="userSpaceOnUse" />
  </defs>
  <defs
     id="defs210">
    <linearGradient
       id="grad9">
      <stop
         offset="0%"
         stop-color="#ffffff"
         stop-opacity="1.0000"
         id="stop204" />
      <stop
         offset="100%"
         stop-color="#e30016"
         stop-opacity="1.0000"
         id="stop206" />
    </linearGradient>
    <linearGradient
       xlink:href="#grad9"
       id="grad10"
       x1="-2376.9302"
       y1="1644.5753"
       x2="-2376.9302"
       y2="2805.0588"
       gradientTransform="matrix(0.63820758,0,0,1.6003078,1748.683,-2615.9354)"
       gradientUnits="userSpaceOnUse" />
  </defs>
  <defs
     id="defs220">
    <linearGradient
       id="grad11">
      <stop
         offset="0%"
         stop-color="#ffffff"
         stop-opacity="1.0000"
         id="stop214" />
      <stop
         offset="100%"
         stop-color="#009035"
         stop-opacity="1.0000"
         id="stop216" />
    </linearGradient>
    <linearGradient
       xlink:href="#grad11"
       id="grad12"
       x1="-3835.3845"
       y1="1170.2472"
       x2="-3835.3845"
       y2="1921.3525"
       gradientTransform="matrix(0.45413587,0,0,2.2489494,1748.683,-2615.9354)"
       gradientUnits="userSpaceOnUse" />
  </defs>
  <defs
     id="defs230">
    <linearGradient
       id="grad13">
      <stop
         offset="0%"
         stop-color="#009035"
         stop-opacity="1.0000"
         id="stop224" />
      <stop
         offset="100%"
         stop-color="#e30016"
         stop-opacity="1.0000"
         id="stop226" />
    </linearGradient>
    <linearGradient
       xlink:href="#grad13"
       id="grad14"
       x1="-3215.1997"
       y1="1395.978"
       x2="-3215.1997"
       y2="1974.7891"
       gradientTransform="matrix(0.54173487,0,0,1.8852923,1748.683,-2615.9354)"
       gradientUnits="userSpaceOnUse" />
  </defs>
  <defs
     id="defs240">
    <linearGradient
       id="grad15">
      <stop
         offset="0%"
         stop-color="#ffffff"
         stop-opacity="1.0000"
         id="stop234" />
      <stop
         offset="100%"
         stop-color="#009035"
         stop-opacity="1.0000"
         id="stop236" />
    </linearGradient>
    <linearGradient
       xlink:href="#grad15"
       id="grad16"
       x1="-2051.4958"
       y1="2187.8416"
       x2="-2051.4958"
       y2="2580.0918"
       gradientTransform="matrix(0.84903203,0,0,1.202933,1748.683,-2615.9354)"
       gradientUnits="userSpaceOnUse" />
  </defs>
  <defs
     id="defs250">
    <linearGradient
       id="grad17">
      <stop
         offset="0%"
         stop-color="#ffffff"
         stop-opacity="1.0000"
         id="stop244" />
      <stop
         offset="100%"
         stop-color="#e30016"
         stop-opacity="1.0000"
         id="stop246" />
    </linearGradient>
    <linearGradient
       xlink:href="#grad17"
       id="grad18"
       x1="-3589.5474"
       y1="1154.4413"
       x2="-3589.5474"
       y2="2514.769"
       gradientTransform="matrix(0.44800211,0,0,2.2797407,1748.683,-2615.9354)"
       gradientUnits="userSpaceOnUse" />
  </defs>
  <defs
     id="defs260">
    <linearGradient
       id="grad19">
      <stop
         offset="0%"
         stop-color="#e30016"
         stop-opacity="1.0000"
         id="stop254" />
      <stop
         offset="100%"
         stop-color="#ffffff"
         stop-opacity="1.0000"
         id="stop256" />
    </linearGradient>
    <linearGradient
       xlink:href="#grad19"
       id="grad20"
       x1="-2177.0161"
       y1="1643.3887"
       x2="-2177.0161"
       y2="2863.3875"
       gradientTransform="matrix(0.63774711,0,0,1.6014633,1748.683,-2615.9354)"
       gradientUnits="userSpaceOnUse" />
  </defs>
  <defs
     id="defs270">
    <linearGradient
       id="grad21">
      <stop
         offset="0%"
         stop-color="#ffffff"
         stop-opacity="1.0000"
         id="stop264" />
      <stop
         offset="100%"
         stop-color="#e30016"
         stop-opacity="1.0000"
         id="stop266" />
    </linearGradient>
    <linearGradient
       xlink:href="#grad21"
       id="grad22"
       x1="-3666.3215"
       y1="1425.1853"
       x2="-3666.3215"
       y2="2543.9639"
       gradientTransform="matrix(0.47507718,0,0,2.1498161,1748.683,-2615.9354)"
       gradientUnits="userSpaceOnUse" />
  </defs>
  <defs
     id="defs280">
    <linearGradient
       id="grad23">
      <stop
         offset="0%"
         stop-color="#009035"
         stop-opacity="1.0000"
         id="stop274" />
      <stop
         offset="100%"
         stop-color="#ffffff"
         stop-opacity="1.0000"
         id="stop276" />
    </linearGradient>
    <linearGradient
       xlink:href="#grad23"
       id="grad24"
       x1="-5501.9839"
       y1="842.65594"
       x2="-5501.9839"
       y2="1098.1127"
       gradientTransform="matrix(0.31657413,0,0,3.226191,1748.683,-2615.9354)"
       gradientUnits="userSpaceOnUse" />
  </defs>
  <defs
     id="defs290">
    <linearGradient
       id="grad25">
      <stop
         offset="0%"
         stop-color="#e30016"
         stop-opacity="1.0000"
         id="stop284" />
      <stop
         offset="100%"
         stop-color="#009035"
         stop-opacity="1.0000"
         id="stop286" />
    </linearGradient>
    <linearGradient
       xlink:href="#grad25"
       id="grad26"
       x1="-4314.5435"
       y1="1040.2834"
       x2="-4314.5435"
       y2="2176.312"
       gradientTransform="matrix(0.40370105,0,0,2.5299132,1748.683,-2615.9354)"
       gradientUnits="userSpaceOnUse" />
  </defs>
</svg>
