<?xml version="1.0" encoding="UTF-8"?>
<!DOCTYPE svg PUBLIC "-//W3C//DTD SVG 1.1//EN" "http://www.w3.org/Graphics/SVG/1.1/DTD/svg11.dtd">
<!-- Creator: CorelDRAW X6 -->
<svg xmlns="http://www.w3.org/2000/svg" xml:space="preserve" width="185px" height="185px" version="1.1" style="shape-rendering:geometricPrecision; text-rendering:geometricPrecision; image-rendering:optimizeQuality; fill-rule:evenodd; clip-rule:evenodd"
viewBox="0 0 17890 17890"
 xmlns:xlink="http://www.w3.org/1999/xlink">
 <defs>
  <style type="text/css">
   <![CDATA[
    .fil0 {fill:#D2D3D5}
    .fil1 {fill:#13B17A}
    .fil2 {fill:#F3202A}
   ]]>
  </style>
 </defs>
 <g id="Capa_x0020_1">
  <metadata id="CorelCorpID_0Corel-Layer"/>
  <g id="_236947024">
   <path class="fil0" d="M8945 0c4940,0 8945,4005 8945,8945 0,3634 -2167,6762 -5280,8161l-742 -742c2957,-1166 5050,-4048 5050,-7420 0,-4404 -3570,-7973 -7973,-7973 -3909,0 -7161,2814 -7842,6527l-814 -814c1002,-3845 4498,-6684 8656,-6684zm-7935 9731c395,4035 3796,7187 7935,7187 366,0 726,-25 1079,-73l838 838c-617,135 -1259,206 -1917,206 -4940,0 -8945,-4005 -8945,-8945 0,-74 1,-148 3,-222l1008 1007z"/>
   <path id="path118" class="fil0" d="M2594 6175l2531 0 0 846 -1695 0 0 1521 1695 0 0 846 -1695 0 0 2366 -836 0 0 -5578zm3412 4725l714 0 0 846 -714 0 0 -846zm1610 -4725l2531 0 0 846 -1695 0 0 1521 1695 0 0 846 -1695 0 0 1521 1695 0 0 846 -2531 0 0 -5578zm3412 4725l714 0 0 846 -714 0 0 -846zm2438 -341l0 1195 -828 0 0 -5617 893 0c596,0 1107,216 1528,648 422,432 633,953 633,1561 0,612 -211,1134 -633,1566 -423,432 -932,648 -1529,648l-63 0zm0 -838l63 0c371,0 687,-134 949,-402 262,-268 393,-592 393,-971 0,-379 -130,-703 -393,-971 -262,-268 -579,-402 -949,-402l-63 0 0 2746z"/>
   <path class="fil1" d="M3629 10061l0 -475 1063 0 1116 1115 0 199 0 199 0 250 0 397 0 199 596 0 118 0 529 0 4528 4528 753 753c-371,152 -755,280 -1149,382l-816 -816 -6738 -6731z"/>
   <path class="fil2" d="M1048 7841l1348 1348 0 1531 -1416 -1416 -960 -960c30,-457 95,-904 191,-1340l836 836zm2581 2581l4072 4072 -765 765 -3307 -3307 0 -1531z"/>
  </g>
 </g>
</svg>
