<?xml version="1.0" encoding="UTF-8"?>
<!DOCTYPE svg PUBLIC "-//W3C//DTD SVG 1.1//EN" "http://www.w3.org/Graphics/SVG/1.1/DTD/svg11.dtd">
<!-- Creator: CorelDRAW X6 -->
<svg xmlns="http://www.w3.org/2000/svg" xml:space="preserve" width="458px" height="458px" version="1.1" style="shape-rendering:geometricPrecision; text-rendering:geometricPrecision; image-rendering:optimizeQuality; fill-rule:evenodd; clip-rule:evenodd"
viewBox="0 0 99190 99190"
 xmlns:xlink="http://www.w3.org/1999/xlink">
 <defs>
  <style type="text/css">
   <![CDATA[
    .fil0 {fill:black}
    .fil1 {fill:black}
   ]]>
  </style>
 </defs>
 <g id="Capa_x0020_1">
  <metadata id="CorelCorpID_0Corel-Layer"/>
  <path class="fil0" d="M31977 42686l-1696 1420c-2891,2793 -7294,10860 -9610,14481 -1196,1871 -2290,3910 -2043,6266 120,1146 613,1793 668,2264 290,182 521,666 721,914 709,880 8039,8186 8689,8818 1281,1245 2409,1832 4507,1345 1906,-697 2005,-1482 2709,-2525l435 6390 26504 0 392 -5894c189,23 69,-6 254,294 577,936 1231,1582 2410,1938 689,208 1450,232 2184,82 814,-166 1175,-530 1754,-784 223,-821 8793,-8188 10115,-10822 333,-663 565,-1407 628,-2225l-114 -1821c-180,-675 -299,-1132 -568,-1761 -170,-399 -686,-1288 -716,-1554 -777,-628 -7269,-11557 -8766,-13558 -963,-1286 -1593,-2136 -2990,-3083 -217,-147 -542,-310 -624,-480 -998,-386 -1642,-1002 -3475,-1492 -1516,-404 -2890,-379 -4521,-379 -946,4097 -5186,11814 -6836,16536 741,539 2783,863 1969,2430 -814,1567 -1886,5174 -2310,6275 -573,1773 -1437,1174 -2900,664 -392,-137 -2913,-928 -3208,-1202 -1135,-87 -205,-2141 108,-2802 190,-758 1722,-4536 1738,-4555 100,-646 622,95 -304,-1315 -925,-1410 -5888,-15369 -6881,-16031 -1734,0 -3118,-19 -4708,495 -2279,737 -2373,1177 -3513,1668zm17606 12862l6320 -15026 -12624 -14 6304 15039zm-6994 -35942c-130,293 -667,776 -968,1085l-907 1025c-721,1216 -1336,2211 -1705,3844 -178,791 -285,1666 -286,2510 -1,739 290,2009 228,2505 66,86 58,66 130,222l430 1333c427,805 622,1305 1098,2006 391,577 919,1237 1369,1667 787,752 2460,2067 3887,2401 310,320 1919,569 2497,637 1016,120 2361,-110 3086,-2 196,-166 1091,-324 1503,-455 999,-298 1815,-728 2605,-1233 368,-235 776,-542 1090,-832 273,-253 689,-645 962,-856l192 -230c805,-1367 1957,-2038 2530,-5353 554,-3201 -223,-4372 -920,-6628 -312,-407 -595,-1046 -932,-1526 -374,-534 -702,-866 -1119,-1303 -1250,-1307 -2365,-1721 -2672,-2112 -798,-93 -4337,-2500 -9639,-167 -1060,466 -2167,1385 -2460,1460zm-8516 34981l-6649 9051 8156 8439 -1507 -17491zm31069 144l6651 8907 -8182 8415 1531 -17323z"/>
  <path class="fil1" d="M49595 0c27391,0 49595,22205 49595,49595 0,27391 -22205,49595 -49595,49595 -27391,0 -49595,-22205 -49595,-49595 0,-27391 22205,-49595 49595,-49595zm0 3683c25357,0 45912,20556 45912,45912 0,25357 -20556,45912 -45912,45912 -25357,0 -45912,-20556 -45912,-45912 0,-25357 20556,-45912 45912,-45912z"/>
 </g>
</svg>
