<?xml version="1.0" encoding="UTF-8"?>
<!DOCTYPE svg PUBLIC "-//W3C//DTD SVG 1.1//EN" "http://www.w3.org/Graphics/SVG/1.1/DTD/svg11.dtd">
<!-- Creator: CorelDRAW X6 -->
<svg xmlns="http://www.w3.org/2000/svg" xml:space="preserve" width="458px" height="458px" version="1.1" style="shape-rendering:geometricPrecision; text-rendering:geometricPrecision; image-rendering:optimizeQuality; fill-rule:evenodd; clip-rule:evenodd"
viewBox="0 0 99362 99362"
 xmlns:xlink="http://www.w3.org/1999/xlink">
 <defs>
  <style type="text/css">
   <![CDATA[
    .str0 {stroke:#FFF212;stroke-width:195.359}
    .fil0 {fill:#FFF212}
    .fil1 {fill:black}
   ]]>
  </style>
 </defs>
 <g id="Capa_x0020_1">
  <metadata id="CorelCorpID_0Corel-Layer"/>
  <path class="fil0" d="M49681 0c27438,0 49681,22243 49681,49681 0,27438 -22243,49681 -49681,49681 -27438,0 -49681,-22243 -49681,-49681 0,-27438 22243,-49681 49681,-49681z"/>
  <g id="_239507200">
   <path class="fil1" d="M61923 28985c-1889,311 -4541,2100 -6006,2991l-8562 5020c-2474,1467 -2600,571 3024,7236 3515,4166 2771,4003 4818,2844 884,-500 1921,-1115 2830,-1656 1762,-1050 2409,-1036 2295,-2372 -92,-1073 -763,-3366 146,-3781 1554,-708 1504,1857 1625,2860 164,1355 325,2646 502,4022 363,2817 26,5648 2861,6203l11639 1951c2467,409 6003,1724 6373,-1527 174,-1525 -716,-2224 -1899,-2544 -2063,-559 -10054,-2363 -10869,-2855 -1145,-692 -1030,-1910 -1103,-3328 -76,-1477 -132,-2969 -184,-4425 -99,-2782 95,-5865 -1263,-7885 -1119,-1665 -3311,-3234 -6228,-2754z"/>
   <path class="fil1" d="M22922 63036c-125,789 1331,5405 1813,5908 766,98 4382,-974 5347,-1220 4668,-1190 4446,-1757 7630,-5959 976,-1288 1984,-2655 3001,-3859 2135,-2526 4160,-4397 7141,-6436 4303,-2944 5161,-1386 423,-6848 -5395,-6219 -3958,-5931 -7081,-4033 -6951,4224 -6094,3316 -9570,10741l-4377 9203c-929,1603 -2582,1678 -4328,2504z"/>
   <path class="fil1" d="M48909 70077c152,475 3289,4558 3579,4612 595,-83 1943,-1370 2594,-1884 855,-674 1660,-1346 2475,-2008 2369,-1927 2617,-3567 893,-6147 -2439,-3650 -4848,-7218 -7340,-10864 -1072,-1569 -805,-1643 -2524,-533 -1345,869 -2639,1937 -3755,2971 -423,391 -700,775 -1107,1133 -1432,1261 -83,1719 884,2535l4981 4119c787,730 1383,1818 1139,3255 -286,1681 -1475,1927 -1820,2811z"/>
   <path class="fil1" d="M32870 22043c-1210,260 -2300,1247 -1781,2852 434,1343 1651,1483 3204,1561 2981,150 6035,303 8996,465 2188,119 2163,94 3712,1049 1028,634 1894,1177 2920,1826 3632,2297 2476,1961 6119,-73 5695,-3179 4780,-1815 -5352,-6751 -1423,-693 -1889,-986 -3736,-981 -2626,6 -12986,-183 -14081,53z"/>
   <path class="fil1" d="M74770 22292c-3313,432 -6091,3372 -5566,7311 433,3247 3521,6006 7320,5450 3192,-468 5955,-3466 5444,-7249 -437,-3235 -3454,-5999 -7198,-5511z"/>
   <g>
    <circle class="fil1" transform="matrix(0.307572 0.951525 -0.951525 0.307572 16809.1 64254.1)" r="2487"/>
    <circle class="fil1" transform="matrix(0.307572 0.951525 -0.951525 0.307572 19138.9 71461.6)" r="2487"/>
    <rect class="fil1 str0" transform="matrix(0.199102 0.615955 -0.951525 0.307572 17185.5 64132.4)" width="11701" height="791" rx="396" ry="396"/>
   </g>
   <g>
    <circle class="fil1" transform="matrix(0.583632 0.812018 -0.812018 0.583632 44000.1 72203.6)" r="2487"/>
    <circle class="fil1" transform="matrix(0.583632 0.812018 -0.812018 0.583632 48420.9 78354.3)" r="2487"/>
    <rect class="fil1 str0" transform="matrix(0.377805 0.525647 -0.812018 0.583632 44321.3 71972.7)" width="11701" height="791" rx="396" ry="396"/>
   </g>
   <path class="fil1" d="M49681 0c27438,0 49681,22243 49681,49681 0,27438 -22243,49681 -49681,49681 -27438,0 -49681,-22243 -49681,-49681 0,-27438 22243,-49681 49681,-49681zm0 3689c25401,0 45992,20591 45992,45992 0,25401 -20591,45992 -45992,45992 -25401,0 -45992,-20591 -45992,-45992 0,-25401 20591,-45992 45992,-45992z"/>
  </g>
 </g>
</svg>
