<?xml version="1.0" encoding="UTF-8"?>
<!DOCTYPE svg PUBLIC "-//W3C//DTD SVG 1.1//EN" "http://www.w3.org/Graphics/SVG/1.1/DTD/svg11.dtd">
<!-- Creator: CorelDRAW X6 -->
<svg xmlns="http://www.w3.org/2000/svg" xml:space="preserve" width="458px" height="458px" version="1.1" style="shape-rendering:geometricPrecision; text-rendering:geometricPrecision; image-rendering:optimizeQuality; fill-rule:evenodd; clip-rule:evenodd"
viewBox="0 0 98192 98192"
 xmlns:xlink="http://www.w3.org/1999/xlink">
 <defs>
  <style type="text/css">
   <![CDATA[
    .fil3 {fill:#0A67A9}
    .fil0 {fill:#4B4B4D}
    .fil1 {fill:#24191D}
    .fil2 {fill:#FDFEFD}
   ]]>
  </style>
 </defs>
 <g id="Capa_x0020_1">
  <metadata id="CorelCorpID_0Corel-Layer"/>
  <g id="_457272520">
   <path class="fil0" d="M30674 94615c-1282,-1328 -2320,-2126 -3392,-3420 -636,-768 -1375,-1446 -2060,-2133l-4201 -4161c-1083,-1053 -532,-239 -1552,-1562l-2591 -2561c1630,-209 49413,-44 54983,-44 2117,0 6202,227 8082,-148 314,-1599 -135,-3393 -240,-4965 -55,-831 35,-1727 -14,-2563 -68,-1160 -285,-962 -352,-2235 -83,-1583 -390,-3216 -1032,-4351 -481,-849 -1484,-2352 -2882,-2428l503 436c718,545 924,554 1660,1469 1780,2212 1582,7431 1896,10408l220 3973c-1752,281 -28832,91 -31350,90 -3530,-2 -30269,268 -31171,-140 -30,-43 -62,-164 -71,-140 -9,24 -53,-104 -64,-143 -374,-1317 132,998 -87,-309 -20,-120 -25,-564 -19,-694l252 -4011c77,-2737 320,-3253 498,-5212 314,-3454 1892,-5358 5229,-6123 650,-149 1460,-402 2148,-619 654,-207 1582,-458 2144,-671 1399,-528 2714,-1020 4065,-1647l2867 -1313c855,-466 2243,-1015 2825,-1537l2458 -4107c12,-440 23,-1353 -31,-1765 -116,-897 -309,-698 -470,-1412 -38,-269 -951,-2921 -1113,-3169 -364,-561 -661,-301 -1630,-1509l-741 -1490c-68,-200 -67,-195 -146,-384l-677 -1933c-315,-812 -209,-2950 -91,-3951l971 -419c18,-1722 -447,-997 -491,-2777 -31,-1259 -241,-5291 181,-6228 1313,-2921 1444,-3035 4225,-5336 2047,-1693 4551,-2041 7084,-2501 958,-174 2059,-172 3024,-31 3742,546 3535,435 6365,1807 1999,969 4853,3616 5309,5819 192,-452 129,-815 90,-1348l316 177c1612,899 8185,7910 9532,9229 456,447 652,574 1146,1132 402,453 784,770 1214,1212 565,580 432,723 1049,1194 1120,855 4885,4757 6084,5954 825,824 1528,1527 2346,2357 804,815 2970,2503 3576,3361l4162 4233c1671,1470 3020,3335 4268,4271l1550 1562c1084,-4055 1665,-8315 1665,-12711 0,-27115 -21981,-49096 -49096,-49096 -27115,0 -49096,21981 -49096,49096 0,20599 12688,38233 30674,45519z"/>
   <path class="fil1" d="M61194 28474c178,892 400,1108 455,2098 44,776 24,1664 13,2447 -29,1979 -501,2871 -481,4702 689,459 1023,504 1060,1560 72,2080 -577,4329 -1539,6111 -978,1813 -1994,1401 -2353,2849 -740,2987 -1130,2549 -1399,3572 -18,2447 -249,2214 673,3530l1481 1921c1057,1520 8510,4571 11147,5379l4084 1051c563,177 388,359 1088,349 1399,76 2402,1579 2882,2428 642,1135 949,2768 1032,4351 67,1273 284,1075 352,2235 49,836 -41,1732 14,2563 105,1572 554,3366 240,4965 -1880,375 -5965,148 -8082,148 -5570,0 -53353,-164 -54983,44l2591 2561c1021,1324 469,509 1552,1562l4201 4161c685,688 1424,1366 2060,2133 1072,1294 2110,2092 3392,3420 5689,2305 11906,3577 18422,3577 22719,0 41830,-15432 47431,-36385l-1550 -1562c-1248,-936 -2597,-2801 -4268,-4271l-4162 -4233c-607,-859 -2772,-2546 -3576,-3361 -818,-830 -1521,-1533 -2346,-2357 -1199,-1197 -4964,-5099 -6084,-5954 -617,-471 -484,-614 -1049,-1194 -430,-442 -811,-759 -1214,-1212 -494,-558 -691,-685 -1146,-1132 -1347,-1319 -7920,-8330 -9532,-9229l-316 -177c39,533 102,896 -90,1348z"/>
   <path class="fil2" d="M38925 50576c1588,1051 616,2985 1117,4138 41,95 7892,7957 8310,7922 307,-26 806,-615 1063,-858 353,-335 725,-663 1075,-1021l6186 -5969c224,-467 -263,-2307 274,-2973 268,-1024 659,-585 1399,-3572 359,-1448 1375,-1036 2353,-2849 962,-1782 1612,-4030 1539,-6111 -37,-1056 -371,-1101 -1060,-1560 -21,-1831 451,-2723 481,-4702 12,-783 31,-1671 -13,-2447 -56,-991 -277,-1207 -455,-2098 -456,-2202 -3310,-4850 -5309,-5819 -2830,-1372 -2623,-1261 -6365,-1807 -964,-141 -2066,-143 -3024,31 -2533,461 -5038,808 -7084,2501 -2781,2301 -2912,2415 -4225,5336 -421,937 -212,4969 -181,6228 44,1780 509,1054 491,2777l-971 419c-118,1000 -224,3138 91,3951l677 1933c79,189 78,184 146,384l741 1490c970,1208 1267,948 1630,1509 162,249 1075,2900 1113,3169z"/>
   <path class="fil2" d="M38221 56249c-293,174 -732,1145 -1253,1611 -583,522 -1971,1071 -2825,1537l-2867 1313c-1350,627 -2665,1119 -4065,1647 -562,212 -1489,464 -2144,671 -687,217 -1498,470 -2148,619 -3337,764 -4915,2669 -5229,6123 -178,1958 -421,2474 -498,5212l-252 4011c-6,131 -1,574 19,694 220,1307 -287,-1008 87,309 11,40 55,167 64,143 9,-24 41,97 71,140 902,407 27641,138 31171,140 2518,1 29598,191 31350,-90l-220 -3973 42 4030 -26449 -2 -162 -1301 -903 568c-76,-142 -652,-2275 -706,-2563 -163,-878 -198,-543 -458,-1251l-711 -2616c-287,-731 -203,-255 -339,-1192 -262,-1796 -922,-2275 -160,-3421 355,-533 -312,596 193,-310 793,-1423 927,-1474 181,-2448l-299 -412c-1577,-2372 -977,-3020 -3772,1546 2323,2333 1233,3345 407,6354 -328,1197 -735,2229 -984,3353 -143,644 -338,1089 -486,1794 -161,764 -134,1080 -876,1145l-597 -3219c-145,-931 -360,-636 -503,-1294 -120,-552 -56,-966 -235,-1602 -637,-2263 -746,-3643 -1605,-5842 -253,-647 -463,-2376 -703,-3192l-897 -2741c-348,-1363 -764,-3253 -445,-4989 114,-622 295,-636 280,-1432l-1073 930z"/>
   <path class="fil2" d="M52912 79082l162 1301 26449 2 -42 -4030c-314,-2976 -116,-8196 -1896,-10408 -736,-915 -942,-924 -1660,-1469l-503 -436c-700,10 -525,-172 -1088,-349l-4084 -1051c-2638,-808 -10090,-3859 -11147,-5379l-1481 -1921c-544,156 -400,878 -263,1450 545,2280 370,1927 -120,4778 -155,903 -256,329 -486,1404l-3033 11620c-190,919 -1129,3441 -810,4487z"/>
   <path class="fil3" d="M38972 59267l5652 21412 2620 -10285c286,-1119 56,-2043 -1307,-3411 2795,-4566 2195,-3918 3772,-1546l299 412c747,974 613,1025 -181,2448 -505,906 162,-223 -193,310 -400,602 -471,1040 -331,1557l2859 10527 5368 -20693 -549 -5810 -8630 8446 -8926 -8882 -454 5514z"/>
  </g>
 </g>
</svg>
