<?xml version="1.0" encoding="UTF-8"?>
<!DOCTYPE svg PUBLIC "-//W3C//DTD SVG 1.1//EN" "http://www.w3.org/Graphics/SVG/1.1/DTD/svg11.dtd">
<!-- Creator: CorelDRAW X6 -->
<svg xmlns="http://www.w3.org/2000/svg" xml:space="preserve" width="458px" height="458px" version="1.1" style="shape-rendering:geometricPrecision; text-rendering:geometricPrecision; image-rendering:optimizeQuality; fill-rule:evenodd; clip-rule:evenodd"
viewBox="0 0 99368 99368"
 xmlns:xlink="http://www.w3.org/1999/xlink">
 <defs>
  <style type="text/css">
   <![CDATA[
    .fil4 {fill:none}
    .fil3 {fill:#00AFEF}
    .fil1 {fill:black}
    .fil2 {fill:#FEFEFE}
    .fil0 {fill:black}
   ]]>
  </style>
 </defs>
 <g id="Capa_x0020_1">
  <metadata id="CorelCorpID_0Corel-Layer"/>
  <g id="_466602960">
   <g>
    <path class="fil0" d="M49684 0c27440,0 49684,22244 49684,49684 0,27440 -22244,49684 -49684,49684 -27440,0 -49684,-22244 -49684,-49684 0,-27440 22244,-49684 49684,-49684zm0 3689c25402,0 45994,20592 45994,45994 0,25402 -20592,45994 -45994,45994 -25402,0 -45994,-20592 -45994,-45994 0,-25402 20592,-45994 45994,-45994z"/>
    <g>
     <path class="fil1" d="M21503 65200l0 14836 2530 0c0,-4427 -2,-8853 -1,-13279 1,-2340 479,-3621 1684,-4917 948,-1020 2539,-2154 4669,-1999 0,1396 6,2794 -1,4190 -9,1850 382,1757 1569,2592 797,561 4330,3172 4861,3408 -250,2886 687,5146 3638,5997 162,1589 -299,2931 493,3653l435 356 4504 0c708,-526 891,-666 887,-1894 -8,-2228 92,-6188 -114,-8051 784,-491 1599,-1159 2418,-1726 794,-549 1625,-1144 2427,-1725 1129,-818 1595,-694 1586,-2609 -7,-1377 -2,-2755 -2,-4131 1726,-510 4002,1182 4657,1924 1178,1332 1713,2544 1710,4934 -4,4427 -1,8853 -1,13279l2521 0 0 -7548c968,-168 15733,-45 18342,-47 1311,-1 1258,-179 1892,-887l0 -39934c-334,-379 -443,-665 -926,-815 -899,-279 -22982,137 -24401,-137 0,-3762 828,-9103 -4040,-10897 -402,-148 -1164,-273 -1538,-440l-19159 0c-479,223 -1259,321 -1859,599 -690,319 -881,465 -1440,929 -806,669 -1502,1534 -1931,2816 -600,1794 -330,7047 -322,9291 8,2019 152,1676 -553,1924 -4555,1606 -4152,8540 609,9522 370,3103 1654,5302 3248,6954 1863,1930 4142,2824 6792,3276l0 2639c-3426,0 -7930,-431 -10543,1081 -1373,794 -2281,1611 -3050,2756 -1421,2118 -1182,3234 -1593,4081zm40497 4284l22 464 17531 -39c294,-171 153,-2062 153,-2464 -2411,-174 -14366,-29 -17715,-28l8 2067zm-28286 -32413c4821,0 10473,0 16125,0 1286,0 1431,-784 1950,-1567 490,-740 968,-1460 1437,-2158 -875,-144 -20355,-119 -22943,-47 209,550 1032,1647 1390,2180 589,880 616,1593 2043,1593zm-7162 4624l4 -4272c-1740,914 -1594,3384 -4,4272zm30359 -4c1674,-760 1681,-3359 0,-4251l0 4251zm-6301 -2149l-5072 26c219,3331 4717,3499 5072,-26zm-12645 55l-5072 -37c242,3473 4819,3316 5072,37zm-7452 1206l-1413 0c-148,4447 424,6878 2863,9092 2840,2578 5164,2314 9813,2314 3689,0 6966,372 9728,-2286 1071,-1031 1814,-2033 2397,-3647 360,-998 787,-4365 458,-5347 -158,-202 -1180,-124 -1417,-115 -519,1447 -902,2016 -1864,2763 -868,674 -2148,1147 -3590,972 -2586,-313 -4261,-2226 -4441,-4924l-2603 -67c-172,1626 -450,2392 -1287,3361 -1643,1902 -4639,2210 -6727,695 -1150,-835 -1405,-1594 -1917,-2812zm12515 36677l1197 31c162,-1146 126,-5251 25,-6483 -146,-1790 -2085,-3059 -3862,-1982 -1656,1004 -1481,3480 107,4330 829,444 1882,165 2327,986 322,595 122,2290 206,3118zm-6092 -17677c344,3321 9162,3429 9617,-30 -2828,0 -2278,-676 -2278,-5004l-5098 2c0,1175 45,2427 2,3577 -58,1529 -868,1322 -2243,1456zm-4055 4467c980,464 4287,3235 5101,3528 3756,-3725 7321,-121 7588,2l5046 -3578c24,-383 112,-4141 -77,-4330 -31,-31 -1158,-390 -1428,205 -260,572 -129,858 -844,1890 -2599,3752 -10257,3873 -13028,44 -628,-868 -563,-1259 -994,-2205l-1320 -24 -43 4470z"/>
     <path class="fil2" d="M56879 33559c0,1383 -71,1100 535,1316 1821,650 3174,2424 3239,4489 58,1849 -831,3488 -2192,4360 -665,425 -1431,536 -1587,885l-180 781c-55,346 -155,707 -251,1054 -996,3616 -3865,6635 -7458,7721 -2616,791 -2188,-357 -2188,3065 1235,214 4229,48 5651,49 1907,1 3204,252 4676,999 1239,629 2311,1493 3099,2597 389,545 708,1106 1019,1832 167,390 267,648 371,1049 273,1049 30,1112 675,1112l17419 -16 -2 -31583c-1433,-141 -17136,-26 -20263,-26 -1067,0 -2563,-216 -2563,315z"/>
     <path class="fil3" d="M29090 30724l25328 -2c0,-3587 669,-7180 -2216,-8531 -1275,-597 -8438,-329 -10426,-329 -1934,0 -9245,-238 -10441,309 -2986,1365 -2246,4856 -2246,8553z"/>
     <path class="fil3" d="M33715 37071c4822,0 10473,0 16125,0 1286,0 1431,-783 1950,-1567 490,-740 967,-1460 1436,-2158 -875,-144 -20355,-119 -22944,-47 209,550 1033,1646 1390,2179 589,880 616,1593 2043,1593z"/>
     <polygon class="fil1" points="51864,80036 54355,80036 54359,71217 50624,71217 50625,73679 51859,73678 "/>
     <path class="fil1" d="M29101 80036l2490 0 -13 -5707c8,-948 291,-631 1297,-660l0 -2443 -3755 -8 -20 8818z"/>
     <path class="fil1" d="M61910 58932l804 875c-303,254 -626,551 -804,903l1654 1709c381,-205 676,-529 928,-828l865 815c453,-208 1495,-1306 1731,-1697l-753 -834c176,-437 515,-602 778,-948l-1729 -1796c-325,327 -539,661 -981,860l-784 -809c-403,268 -1522,1317 -1709,1749z"/>
     <path class="fil1" d="M61905 37346c209,474 493,515 756,956 -263,440 -547,482 -749,948l1662 1672 949 -860 835 853 1767 -1676 -823 -916 873 -946 -1767 -1716 -870 841 -920 -831 -1714 1675z"/>
     <path class="fil1" d="M61905 48728c209,473 493,515 756,956 -263,440 -547,482 -749,948l1662 1672 949 -860 835 852 1767 -1676 -823 -916 873 -946 -1767 -1715 -870 840 -920 -831 -1714 1675z"/>
     <path class="fil1" d="M37594 48434l1646 1604c539,-207 988,-927 2418,-948 1345,-21 1727,483 2491,941l1757 -1718c-3358,-3105 -7676,-1226 -8311,122z"/>
     <path class="fil1" d="M42973 29420l-2 -2490c-632,0 -808,-12 -1161,-278 -228,-936 364,-1025 1163,-1026l-2 -2490c-2123,2 -3694,991 -3733,3071 -45,2337 1689,3213 3736,3213z"/>
     <path class="fil2" d="M53119 38302l1269 0 -13 -2001c-381,286 -1112,1480 -1257,2001z"/>
     <path class="fil2" d="M29090 38302l1265 -17c-93,-311 -386,-783 -547,-1057l-472 -716c-16,-21 -38,-49 -55,-69l-121 -134c-13,-15 -42,-44 -64,-66l-7 2058z"/>
     <path class="fil1" d="M71437 48417c209,473 493,515 756,956 -263,441 -547,482 -749,949l1662 1672 949 -860 835 853 1767 -1676 -823 -916 873 -946 -1767 -1715 -870 840 -920 -831 -1714 1675z"/>
    </g>
   </g>
   <path class="fil3" d="M32882 64269c980,464 4287,3235 5101,3528 3756,-3725 7321,-121 7588,2l5046 -3578c24,-383 112,-4141 -77,-4330 -31,-31 -1158,-390 -1428,205 -260,572 -129,858 -844,1890 -2599,3752 -10257,3873 -13028,44 -628,-868 -563,-1259 -994,-2205l-1320 -24 -43 4470z"/>
   <path class="fil3" d="M41379 80036l-9788 0 -13 -5707c8,-948 291,-631 1297,-660l0 -2443 -3755 -8 -20 4833 -5068 0c0,-4427 -2,-4868 -1,-9294 1,-2340 479,-3621 1684,-4917 948,-1020 2539,-2154 4669,-1999 0,1396 6,2794 -1,4190 -9,1850 382,1757 1569,2592 797,561 4330,3172 4861,3408 -250,2886 687,5146 3638,5997 162,1589 -299,2931 493,3653l435 356z"/>
   <path class="fil3" d="M59455 76051l-5098 0 2 -4834 -3735 0 1 2462 1234 0 6 6357 -5982 0c708,-526 891,-666 887,-1894 -8,-2228 92,-6188 -114,-8051 784,-491 1599,-1159 2418,-1726 794,-549 1625,-1144 2427,-1725 1129,-818 1595,-694 1586,-2609 -7,-1377 -2,-2755 -2,-4131 1726,-510 4002,1182 4657,1924 1178,1332 1713,2544 1710,4934 -4,4427 2,4868 2,9294z"/>
   <path class="fil4" d="M30514 40802l-1413 0c-148,4447 424,6878 2863,9092 2840,2578 5164,2314 9813,2314 3689,0 6966,372 9728,-2286 1071,-1031 1814,-2033 2397,-3647 360,-998 787,-4365 458,-5347 -158,-202 -1180,-124 -1417,-115 -519,1447 -902,2016 -1864,2763 -868,674 -2148,1147 -3590,972 -2586,-313 -4261,-2226 -4441,-4924l-2603 -67c-172,1626 -450,2392 -1287,3361 -1643,1902 -4639,2210 -6727,695 -1150,-835 -1405,-1594 -1917,-2812z"/>
  </g>
 </g>
</svg>
