<?xml version="1.0" encoding="UTF-8"?>
<!DOCTYPE svg PUBLIC "-//W3C//DTD SVG 1.1//EN" "http://www.w3.org/Graphics/SVG/1.1/DTD/svg11.dtd">
<!-- Creator: CorelDRAW X6 -->
<svg xmlns="http://www.w3.org/2000/svg" xml:space="preserve" width="458px" height="458px" version="1.1" style="shape-rendering:geometricPrecision; text-rendering:geometricPrecision; image-rendering:optimizeQuality; fill-rule:evenodd; clip-rule:evenodd"
viewBox="0 0 98576 98576"
 xmlns:xlink="http://www.w3.org/1999/xlink">
 <defs>
  <style type="text/css">
   <![CDATA[
    .fil0 {fill:#4B4B4D}
    .fil1 {fill:#24191D}
    .fil2 {fill:#FEFEFE}
   ]]>
  </style>
 </defs>
 <g id="Capa_x0020_1">
  <metadata id="CorelCorpID_0Corel-Layer"/>
  <g id="_456196880">
   <path class="fil0" d="M51336 98530l-1431 -1333c-32,-37 -119,-149 -150,-187l-12621 -12988c-208,-215 -279,-311 -463,-524l-989 -1041c-1586,-1879 -2515,-2645 -4199,-4330l-2136 -2245c-1230,-1353 -4676,-5067 -5482,-5605l570 -46c-1363,-1244 -1786,-192 -1783,-4233 1,-1964 -141,-3793 1400,-4465 1328,-579 1689,487 1697,-1210 5,-1034 66,-1706 773,-2203 951,-670 4319,-380 5712,-380 3964,0 7919,6 11880,41 3948,36 8075,-142 11994,25 -235,-259 -242,-341 -1111,-365 -342,-10 -813,23 -1179,25l-7027 0c-1999,0 -3223,287 -4071,-459l-2292 -2231c-1680,-1647 -3228,-3206 -4649,-4539l-4250 -4549c-478,-780 -1664,-1138 -2169,-1905 -724,-1100 41,-2005 738,-2538l906 593c648,-1109 549,-1199 1102,-1038 1,-1019 1695,-2805 2579,-3968 553,-727 936,-1187 1458,-1888 476,-639 1128,-1169 1359,-1907 -170,-213 -77,-101 -279,-292 -1537,-1458 -1524,-2295 -147,-4070 1936,-2494 2780,-1589 4360,-844 544,-268 2521,-2990 3018,-3655 1044,-1395 2179,-3417 3336,-3269 -287,-432 437,-109 -561,-503 1025,-541 22,-878 1283,-754l-939 -1003c243,-1052 1182,-1806 2438,-1358l11309 8241c2900,2176 3819,2168 3516,4429 426,-324 251,-765 570,-1310 269,397 459,587 945,1055l18612 15353c534,409 667,547 1086,923l9793 8102c1143,862 1852,1451 2281,1886 296,-2185 452,-4414 452,-6680 0,-27221 -22067,-49288 -49288,-49288 -27221,0 -49288,22067 -49288,49288 0,27221 22067,49288 49288,49288 686,0 1368,-18 2048,-46z"/>
   <path class="fil1" d="M47790 20908c567,725 6027,4494 7232,5397 592,444 7171,5069 7257,5561 138,796 -4789,6294 -5262,7362 348,487 3867,2977 4655,3539l9433 6947c2018,1447 3604,2450 1581,5034 -2111,2696 -3319,1654 -5281,172 -1126,-850 -13667,-10234 -14425,-10418l-1477 1789c-847,1114 -3457,4689 -4212,5263 -959,-176 -14295,-10595 -15186,-10754 -553,-161 -454,-71 -1102,1038 1966,1697 14943,10666 15489,11444 -166,908 -628,1481 -1712,1498 -1191,18 -4628,-2922 -5777,-3752 -1083,-782 -6786,-5171 -7475,-5340l4250 4549c1421,1333 2968,2892 4649,4539l2292 2231c848,746 2072,459 4071,459l7027 0c366,-1 836,-34 1179,-25 869,24 877,106 1111,365 1848,1061 1265,1152 1428,3469 2087,256 3083,615 3100,2875 54,7212 413,6035 -12005,6037 -1727,0 -23127,-152 -24196,44l-570 46c806,538 4252,4252 5482,5605l2136 2245c1685,1685 2613,2451 4199,4330l989 1041c184,213 255,309 463,524l12621 12988c31,38 118,149 150,187l1431 1333c24027,-983 43616,-19164 46787,-42562 -429,-435 -1137,-1024 -2281,-1886l-9793 -8102c-419,-376 -552,-514 -1086,-923l-18612 -15353c-486,-467 -676,-658 -945,-1055 -319,545 -144,986 -570,1310 -1240,976 -598,1161 -4039,-1385 -1540,-1140 -11887,-8929 -12286,-8923 -1261,-124 -258,213 -1283,754 999,395 274,71 561,503z"/>
   <path class="fil2" d="M32106 40800c891,158 14227,10578 15186,10754 755,-574 3365,-4149 4212,-5263l1477 -1789c758,184 13300,9568 14425,10418 1961,1482 3170,2524 5281,-172 2023,-2584 437,-3587 -1581,-5034l-9433 -6947c-789,-562 -4308,-3052 -4655,-3539 473,-1068 5399,-6566 5262,-7362 -86,-492 -6665,-5118 -7257,-5561 -1206,-903 -6665,-4672 -7232,-5397 -1157,-148 -2292,1873 -3336,3269 -497,665 -2474,3387 -3018,3655 -1580,-745 -2424,-1650 -4360,844 -1377,1775 -1390,2611 147,4070 201,191 109,80 279,292 -232,738 -883,1269 -1359,1907 -522,701 -905,1160 -1458,1888 -883,1163 -2578,2950 -2579,3968z"/>
   <path class="fil2" d="M24434 70232c1069,-196 22469,-44 24196,-44 12418,-2 12059,1174 12005,-6037 -17,-2260 -1013,-2619 -3100,-2875 -164,-2317 419,-2408 -1428,-3469 -3919,-167 -8046,11 -11994,-25 -3961,-35 -7916,-41 -11880,-41 -1393,0 -4761,-290 -5712,380 -706,498 -768,1169 -773,2203 -8,1696 -369,630 -1697,1210 -1541,672 -1399,2501 -1400,4465 -3,4041 419,2990 1783,4233z"/>
   <path class="fil2" d="M48511 19651c398,-6 10745,7783 12286,8923 3441,2546 2799,2361 4039,1385 303,-2260 -616,-2253 -3516,-4429l-11309 -8241c-1256,-448 -2195,306 -2438,1358l939 1003z"/>
   <path class="fil2" d="M31528 45689c689,169 6392,4558 7475,5340 1149,829 4586,3770 5777,3752 1084,-17 1547,-590 1712,-1498 -546,-779 -13523,-9747 -15489,-11444l-906 -593c-697,533 -1463,1438 -738,2538 505,767 1691,1125 2169,1905z"/>
  </g>
 </g>
</svg>
